<svg width="190" height="32" viewBox="0 0 190 32" fill="none" xmlns="http://www.w3.org/2000/svg">
<path d="M9.37112 19.928V27.8281L14.4108 28.9178L14.0022 30.5977L0.97162 30.5523L0.608398 29.0086L4.0136 27.9189L4.059 4.71812L0.6538 3.58305L1.06243 2.03936H12.0045C18.0884 2.03936 23.1735 4.26409 23.1281 10.8021C23.1281 17.7941 17.3166 19.928 11.9591 19.8826L9.37112 19.928ZM9.37112 17.7033H11.0056C15.5005 17.7033 17.5436 15.978 17.589 10.8475C17.589 6.26181 15.4097 4.3549 11.051 4.3549H9.41652L9.37112 17.7033ZM39.3369 1.67614C31.573 1.67614 25.9431 6.57963 25.9431 16.432C25.9431 26.239 31.4822 31.1425 39.2915 31.1425C43.4685 31.1425 47.1916 29.5988 49.2347 26.7384L48.2358 25.1947C45.1484 27.5557 42.6513 28.0551 39.9725 28.0551C35.2053 28.0551 31.8909 24.6045 31.8909 16.432C31.8909 7.71469 34.615 3.76466 39.4277 3.81007C41.8794 3.81007 43.4685 4.71812 45.2393 7.26067L47.237 10.0302L48.2358 9.80323V1.72154L45.3301 2.62959C43.5593 2.13016 41.4708 1.67614 39.3369 1.67614ZM69.1665 21.8803H58.8147L56.5445 28.0551L60.3584 29.0994L60.1313 30.7339H51.3686L51.0508 29.2356L53.4117 28.0097L63.1733 2.22097H67.5774L77.1574 28.0551L79.5637 29.281L79.2005 30.7793H68.1222L67.8498 29.0994L71.4366 28.3275L69.1665 21.8803ZM59.7227 19.5194H68.3038L65.7159 12.2096C64.4446 8.66816 64.3084 6.30722 64.3084 6.30722H64.1268C64.1268 6.30722 63.7182 8.94057 62.4469 12.255L59.7227 19.5194ZM96.4535 29.0994L91.4138 28.0097V17.4763H95.9541L97.9518 21.7441L98.9506 21.5625V11.1653L97.9064 10.9837L95.9087 15.1607H91.4138V4.62732H99.3593L102.946 10.121L103.945 9.89402V2.26638L83.0597 2.22097L82.6511 3.76466L86.0563 4.89973L86.0109 28.1005L82.6057 29.1902L82.9689 30.7339L95.9995 30.7793L96.4535 29.0994ZM114.115 5.21755V7.57849H113.025V1.26751H115.477C116.794 1.26751 117.611 1.94856 117.611 3.26524C117.611 4.53651 116.749 5.21755 115.432 5.21755H114.115ZM115.432 2.22097H114.07V4.3095H115.432C116.158 4.3095 116.567 3.85547 116.567 3.26524C116.567 2.6296 116.204 2.22097 115.432 2.22097ZM120.926 7.57849V7.30608C120.789 7.44229 120.29 7.62389 119.79 7.62389C118.837 7.62389 118.065 7.07906 118.111 6.12561C118.111 5.26296 118.882 4.67272 119.881 4.67272C120.29 4.67272 120.744 4.80893 120.926 4.94513V4.58191C120.926 4.12788 120.653 3.76466 120.063 3.76466C119.654 3.76466 119.382 3.94627 119.291 4.26409H118.292C118.428 3.49225 119.155 2.90201 120.063 2.90201C121.198 2.90201 121.879 3.53765 121.879 4.58191V7.57849H120.926ZM120.926 5.9894C120.835 5.71698 120.381 5.53537 119.972 5.53537C119.518 5.53537 119.019 5.71698 119.019 6.17101C119.019 6.62503 119.518 6.80665 119.972 6.80665C120.381 6.80665 120.789 6.62504 120.926 6.35262V5.9894ZM125.693 3.03822C125.602 2.99282 125.42 2.94742 125.193 2.94742C124.739 2.94742 124.331 3.17443 124.195 3.53765V3.08362H123.15V7.62389H124.195V4.67272C124.285 4.17329 124.694 3.94628 125.103 3.94628C125.33 3.94628 125.557 3.99168 125.693 4.08249V3.03822ZM127.055 6.39802C127.055 7.30607 127.645 7.7147 128.417 7.7147C128.735 7.7147 129.007 7.6693 129.189 7.53309V6.57963C129.053 6.67044 128.826 6.76124 128.599 6.76124C128.281 6.76124 128.054 6.57963 128.054 6.21641V3.85547H129.098V2.99282H128.054V1.76695H127.01V2.99282H126.283V3.85547H127.01L127.055 6.39802ZM130.279 7.62389H131.323V4.62732C131.414 4.17329 131.822 3.90087 132.276 3.90087C132.866 3.90087 133.139 4.2641 133.139 4.85433V7.6693H134.183V4.71812C134.183 3.71926 133.593 3.03822 132.594 3.03822C132.049 3.03822 131.595 3.26523 131.368 3.58305V3.17443H130.324L130.279 7.62389ZM138.905 6.21641C138.769 7.12446 138.088 7.7147 136.998 7.7147C135.727 7.7147 134.864 6.76124 134.864 5.35376C134.864 3.99167 135.772 2.94742 136.998 2.94742C138.269 2.94742 138.996 3.85547 138.996 5.21755V5.58077H135.908C135.954 6.39802 136.408 6.85205 137.044 6.85205C137.543 6.85205 137.906 6.62504 137.997 6.21641H138.905ZM135.863 4.85433H137.906C137.906 4.3095 137.588 3.85547 136.953 3.85547C136.408 3.81007 135.999 4.17329 135.863 4.85433ZM142.265 3.08362C142.174 3.03822 141.992 2.99282 141.765 2.99282C141.311 2.99282 140.903 3.21983 140.767 3.58305V3.12903H139.722V7.6693H140.767V4.71812C140.857 4.21869 141.266 3.99167 141.675 3.99167C141.902 3.99167 142.129 4.03708 142.265 4.12788V3.08362ZM142.81 6.35262C142.946 7.21527 143.672 7.76011 144.762 7.76011C145.806 7.76011 146.533 7.21527 146.533 6.30722C146.533 5.62617 146.124 5.21755 145.352 4.99054L144.399 4.76353C144.081 4.67272 143.945 4.53651 143.945 4.3549C143.945 3.99168 144.308 3.85547 144.671 3.85547C145.125 3.85547 145.398 4.08248 145.488 4.3549H146.487C146.351 3.53765 145.715 2.99282 144.671 2.99282C143.672 2.99282 142.946 3.58305 142.946 4.4003C142.946 5.17215 143.445 5.48997 144.081 5.67158L145.034 5.89859C145.398 5.9894 145.579 6.12561 145.579 6.35262C145.579 6.71584 145.261 6.89745 144.807 6.89745C144.353 6.89745 144.036 6.71584 143.899 6.30722L142.81 6.35262ZM147.532 7.6693H148.576V4.67272C148.712 4.21869 149.075 3.94628 149.529 3.94628C150.119 3.94628 150.392 4.30949 150.392 4.89973V7.7147H151.436V4.76353C151.436 3.76467 150.846 3.08362 149.847 3.08362C149.302 3.08362 148.848 3.31064 148.621 3.62846V1.0859H147.577L147.532 7.6693ZM153.161 2.35718C152.844 2.35718 152.526 2.08476 152.526 1.72154C152.526 1.35832 152.844 1.0859 153.161 1.0859C153.479 1.0859 153.797 1.35832 153.797 1.72154C153.797 2.08476 153.479 2.35718 153.161 2.35718ZM153.661 7.6693H152.617V3.12903H153.661V7.6693ZM155.931 9.39459H154.887V3.08362H155.931V3.49225C156.158 3.21983 156.567 2.99282 157.112 2.99282C158.428 2.99282 159.245 4.12789 159.2 5.39916C159.2 6.67044 158.428 7.76011 157.066 7.76011C156.567 7.76011 156.113 7.53309 155.886 7.26067L155.931 9.39459ZM155.931 6.26181C156.113 6.62503 156.476 6.85205 156.93 6.85205C157.702 6.85205 158.201 6.21641 158.201 5.39916C158.201 4.53651 157.747 3.94628 156.93 3.94628C156.521 3.94628 156.113 4.17329 155.931 4.53651V6.26181ZM164.966 1.0405C164.785 0.949694 164.603 0.904297 164.285 0.904297C163.422 0.904297 162.787 1.44912 162.787 2.40258V3.12903H162.015V3.99167H162.787V7.7147H163.786V3.99167H164.785V3.12903H163.786V2.49339C163.786 2.03936 164.058 1.81235 164.467 1.81235C164.648 1.81235 164.83 1.85775 164.966 1.94855V1.0405ZM167.463 7.8055C166.192 7.8055 165.284 6.80664 165.284 5.39916C165.284 3.99168 166.192 3.03822 167.463 3.03822C168.735 3.03822 169.643 4.03708 169.643 5.44457C169.597 6.80665 168.735 7.8055 167.463 7.8055ZM167.463 3.90087C166.737 3.90087 166.328 4.53651 166.328 5.39916C166.328 6.26181 166.737 6.89745 167.463 6.89745C168.19 6.89745 168.598 6.26181 168.598 5.39916C168.598 4.53651 168.19 3.90087 167.463 3.90087ZM173.139 3.12903C173.048 3.08362 172.866 3.03822 172.639 3.03822C172.185 3.03822 171.777 3.26524 171.64 3.62846V3.17443H170.596V7.7147H171.64V4.76353C171.731 4.2641 172.14 4.03708 172.548 4.03708C172.775 4.03708 173.002 4.08248 173.139 4.17329V3.12903ZM115.523 12.8452C113.888 12.8452 112.662 14.1619 112.662 16.1142C112.662 18.0665 113.888 19.3832 115.523 19.3832C116.93 19.3832 117.838 18.5659 118.111 17.2947H117.066C116.839 17.9757 116.385 18.4297 115.523 18.4297C114.388 18.4297 113.752 17.4309 113.752 16.1596C113.752 14.8429 114.433 13.8895 115.523 13.8895C116.385 13.8895 116.794 14.3435 117.021 15.0245H118.065C117.884 13.6625 116.976 12.8452 115.523 12.8452ZM121.607 19.2924V19.02C121.47 19.1562 120.971 19.3378 120.472 19.3378C119.518 19.3378 118.746 18.793 118.792 17.8395C118.792 16.9768 119.563 16.3866 120.562 16.3866C120.971 16.3866 121.425 16.5228 121.607 16.659V16.2958C121.607 15.8418 121.334 15.4786 120.744 15.4786C120.335 15.4786 120.063 15.6602 119.972 15.978H118.973C119.109 15.2061 119.836 14.6159 120.744 14.6159C121.879 14.6159 122.56 15.2515 122.56 16.2958V19.2924H121.607ZM121.607 17.6579C121.516 17.3855 121.107 17.2039 120.653 17.2039C120.199 17.2039 119.7 17.3855 119.7 17.8395C119.7 18.2935 120.199 18.4751 120.653 18.5205C121.062 18.5205 121.47 18.3389 121.607 18.0665V17.6579ZM126.328 14.7067C126.238 14.6613 126.056 14.6159 125.829 14.6159C125.375 14.6159 124.966 14.8429 124.83 15.2061V14.7521H123.786V19.2924H124.83V16.3412C124.921 15.8418 125.33 15.6148 125.738 15.6148C125.965 15.6148 126.192 15.6602 126.328 15.751V14.7067ZM128.326 19.2924H127.282V12.6182H128.326V15.1153C128.553 14.8429 128.962 14.6159 129.507 14.6159C130.823 14.6159 131.641 15.7056 131.595 17.0223C131.595 18.3389 130.823 19.3832 129.461 19.3832C128.962 19.3832 128.508 19.1562 128.281 18.8838V19.2924H128.326ZM128.326 17.8849C128.508 18.2481 128.871 18.4751 129.325 18.4751C130.097 18.4751 130.596 17.8395 130.596 17.0223C130.596 16.1596 130.142 15.5694 129.325 15.5694C128.916 15.5694 128.508 15.7964 128.326 16.1596V17.8849ZM134.183 19.3832C132.912 19.3832 132.004 18.3843 132.004 16.9768C132.004 15.5694 132.912 14.6159 134.183 14.6159C135.454 14.6159 136.362 15.6148 136.362 17.0223C136.362 18.4297 135.454 19.3832 134.183 19.3832ZM134.183 15.524C133.457 15.524 133.048 16.1596 133.048 17.0223C133.048 17.8849 133.457 18.5205 134.183 18.5205C134.91 18.5205 135.318 17.8849 135.318 17.0223C135.318 16.1596 134.955 15.524 134.183 15.524ZM137.089 19.2924H138.133V16.2958C138.224 15.8418 138.633 15.5694 139.087 15.5694C139.677 15.5694 139.949 15.9326 139.949 16.5228V19.3378H140.994V16.3866C140.994 15.3878 140.403 14.7067 139.404 14.7067C138.86 14.7067 138.406 14.9337 138.179 15.2516V14.7975H137.134L137.089 19.2924ZM147.486 13.0268L149.892 19.3378H148.803L148.167 17.6125H145.761L145.125 19.3378H144.036L146.487 13.0268H147.486ZM146.079 16.659H147.804L146.941 14.3435L146.079 16.659ZM152.48 14.6613C151.255 14.6613 150.347 15.6148 150.347 17.0223C150.347 18.4297 151.255 19.3832 152.48 19.4286C153.57 19.4286 154.251 18.8384 154.387 17.8849H153.343C153.252 18.2935 152.934 18.5205 152.48 18.5205C151.799 18.5205 151.391 17.8849 151.391 17.0223C151.391 16.1596 151.799 15.524 152.526 15.524C152.98 15.524 153.298 15.751 153.388 16.1596H154.433C154.251 15.297 153.525 14.6613 152.48 14.6613ZM157.112 14.6613C155.886 14.6613 154.978 15.6148 154.978 17.0223C154.978 18.4297 155.886 19.3832 157.112 19.4286C158.201 19.4286 158.882 18.8384 159.018 17.8849H157.974C157.883 18.2935 157.566 18.5205 157.112 18.5205C156.43 18.5205 156.022 17.8849 156.022 17.0223C156.022 16.1596 156.43 15.524 157.157 15.524C157.611 15.524 157.929 15.751 158.02 16.1596H159.064C158.882 15.297 158.156 14.7067 157.112 14.6613ZM161.743 19.474C160.471 19.474 159.563 18.4751 159.563 17.0677C159.563 15.6602 160.471 14.7067 161.743 14.7067C163.014 14.7067 163.922 15.7056 163.922 17.1131C163.922 18.4751 163.014 19.474 161.743 19.474ZM161.743 15.5694C161.016 15.5694 160.608 16.205 160.608 17.0677C160.608 17.9303 161.016 18.5659 161.743 18.5659C162.469 18.5659 162.878 17.9303 162.878 17.0677C162.878 16.205 162.514 15.5694 161.743 15.5694ZM168.462 14.7975H167.418V17.7941C167.327 18.2481 166.919 18.5205 166.464 18.5205C165.874 18.5205 165.602 18.1573 165.602 17.5671V14.7521H164.558V17.7033C164.558 18.7022 165.102 19.3832 166.147 19.3832C166.691 19.3832 167.146 19.1562 167.373 18.8384V19.247H168.417L168.462 14.7975ZM169.733 19.3832H170.778V16.3866C170.914 15.9326 171.277 15.6602 171.731 15.6602C172.321 15.6602 172.594 16.0234 172.594 16.6136V19.4286H173.638V16.4774C173.638 15.4786 173.048 14.7975 172.049 14.7975C171.504 14.7975 171.05 15.0245 170.823 15.3423V14.8883H169.779L169.733 19.3832ZM174.864 18.1573C174.864 19.0654 175.454 19.474 176.226 19.474C176.544 19.474 176.816 19.4286 176.998 19.2924V18.3389C176.862 18.4297 176.635 18.5205 176.408 18.5205C176.09 18.5205 175.863 18.3389 175.863 17.9757V15.6148H176.907V14.7521H175.863V13.5262H174.819V14.7521H174.092V15.6148H174.819L174.864 18.1573ZM178.587 14.0711C178.269 14.0711 177.951 13.7987 177.951 13.4354C177.951 13.0722 178.269 12.7998 178.587 12.7998C178.905 12.7998 179.223 13.0722 179.223 13.4354C179.223 13.7987 178.905 14.0711 178.587 14.0711ZM179.086 19.3832H178.042V14.8429H179.086V19.3832ZM180.358 19.3832H181.402V16.3866C181.493 15.9326 181.901 15.6602 182.355 15.6602C182.946 15.6602 183.218 16.0234 183.218 16.6136V19.4286H184.262V16.4774C184.262 15.4786 183.672 14.7975 182.673 14.7975C182.128 14.7975 181.674 15.0245 181.447 15.3423V14.8883H180.403L180.358 19.3832ZM188.394 18.8838C188.167 19.1108 187.758 19.3378 187.214 19.3378C185.851 19.3378 185.08 18.2027 185.125 17.0223C185.125 15.8418 185.897 14.7067 187.259 14.7067C187.758 14.7067 188.212 14.9337 188.439 15.1607V14.7975H189.484V18.9746C189.484 20.5183 188.53 21.1993 187.35 21.1993C186.169 21.1993 185.443 20.6091 185.352 19.6102H186.351C186.442 20.1096 186.805 20.3821 187.395 20.3821C188.167 20.3821 188.53 19.928 188.53 19.0654V18.8838H188.394ZM188.394 16.205C188.212 15.8872 187.849 15.6602 187.395 15.6602C186.623 15.6602 186.169 16.2504 186.169 17.0677C186.169 17.8849 186.623 18.4751 187.395 18.4751C187.849 18.4751 188.212 18.2481 188.394 17.9303V16.205ZM114.07 30.9155V28.3729H116.839V27.4195H114.07V25.558H117.021V24.6045H112.98V30.9155H114.07ZM118.519 25.6488C118.201 25.6488 117.884 25.3764 117.884 25.0131C117.884 24.6499 118.201 24.3775 118.519 24.3775C118.837 24.3775 119.155 24.6499 119.155 25.0131C119.155 25.3309 118.882 25.6488 118.519 25.6488ZM119.019 30.9155H117.974V26.3752H119.019V30.9155ZM120.29 30.9155H121.334V27.9189C121.47 27.4649 121.834 27.1925 122.288 27.1925C122.878 27.1925 123.15 27.5557 123.15 28.1459V30.9609H124.195V28.0097C124.195 27.0108 123.604 26.3298 122.605 26.3298C122.061 26.3298 121.607 26.5568 121.38 26.8746V26.4206H120.335L120.29 30.9155ZM127.918 30.9609V30.6885C127.781 30.8247 127.282 31.0063 126.783 31.0063C125.829 31.0063 125.057 30.4615 125.103 29.508C125.103 28.6453 125.874 28.0551 126.873 28.0551C127.282 28.0551 127.736 28.1913 127.918 28.3275V27.9643C127.918 27.5103 127.645 27.1471 127.055 27.1471C126.646 27.1471 126.374 27.3287 126.283 27.6465H125.284C125.42 26.8746 126.147 26.2844 127.055 26.2844C128.19 26.2844 128.871 26.92 128.871 27.9643V30.9609H127.918ZM127.918 29.3718C127.827 29.0994 127.418 28.9178 126.964 28.9178C126.51 28.9178 126.011 29.0994 126.011 29.5534C126.011 30.0074 126.51 30.189 126.964 30.189C127.373 30.189 127.781 30.0074 127.918 29.735V29.3718ZM130.097 30.9609H131.141V27.9643C131.232 27.5103 131.641 27.2379 132.095 27.2379C132.685 27.2379 132.957 27.6011 132.957 28.1913V30.9609H134.002V28.0097C134.002 27.0108 133.411 26.3298 132.412 26.3298C131.868 26.3298 131.414 26.5568 131.187 26.8746V26.4206H130.142L130.097 30.9609ZM136.998 26.3298C135.772 26.3298 134.864 27.2833 134.864 28.6907C134.864 30.0982 135.772 31.0517 136.998 31.0971C138.088 31.0971 138.769 30.4615 138.905 29.5534H137.861C137.77 29.962 137.452 30.189 136.998 30.189C136.317 30.189 135.908 29.5534 135.908 28.6907C135.908 27.8281 136.317 27.1925 137.044 27.1925C137.498 27.1925 137.815 27.4195 137.906 27.8281H138.95C138.769 26.92 138.088 26.3298 136.998 26.3298ZM140.131 25.6488C139.768 25.6488 139.495 25.3764 139.495 25.0131C139.495 24.6499 139.813 24.3775 140.131 24.3775C140.449 24.3775 140.767 24.6499 140.767 25.0131C140.767 25.3764 140.494 25.6488 140.131 25.6488ZM140.63 30.9609H139.586V26.4206H140.63V30.9609ZM144.444 31.0063V30.7339C144.308 30.8701 143.809 31.0517 143.309 31.0517C142.356 31.0517 141.629 30.5069 141.629 29.5534C141.629 28.6908 142.401 28.1005 143.4 28.1005C143.809 28.1005 144.263 28.2367 144.444 28.3729V28.0097C144.444 27.5557 144.172 27.1925 143.581 27.1925C143.173 27.1925 142.9 27.3741 142.81 27.6919H141.811C141.947 26.92 142.673 26.3298 143.581 26.3298C144.717 26.3298 145.398 26.9654 145.398 28.0097V31.0063H144.444ZM144.444 29.4172C144.353 29.1448 143.899 28.9632 143.491 28.9632C143.037 28.9632 142.537 29.1448 142.537 29.5988C142.537 30.0528 143.037 30.2344 143.491 30.2344C143.899 30.2344 144.308 30.0528 144.444 29.7804V29.4172ZM147.668 24.3321H146.623V31.0063H147.668V24.3321ZM148.621 29.6896C148.757 30.5523 149.484 31.0971 150.574 31.0971C151.618 31.0971 152.344 30.5523 152.344 29.6442C152.344 28.9632 151.936 28.5545 151.164 28.3275L150.21 28.1005C149.892 28.0097 149.756 27.8735 149.756 27.6919C149.756 27.3287 150.119 27.1471 150.483 27.1925C150.937 27.1925 151.209 27.4195 151.3 27.6919H152.299C152.163 26.8746 151.527 26.3298 150.483 26.3298C149.484 26.3298 148.757 26.92 148.757 27.7373C148.757 28.5091 149.257 28.827 149.892 29.0086L150.846 29.2356C151.209 29.3264 151.391 29.4626 151.391 29.6896C151.391 30.0528 151.073 30.2344 150.619 30.2344C150.165 30.2344 149.847 30.0528 149.711 29.6442L148.621 29.6896Z" fill="#423E3B"/>
</svg>
