<svg width="221" height="44" viewBox="0 0 221 44" fill="none" xmlns="http://www.w3.org/2000/svg">
<path d="M0 44H220.774V0H0V44Z" fill="#3A63A7"/>
<path d="M21.2778 34.8193C14.3821 34.8193 9.01172 29.9346 9.01172 23.037C9.01172 15.6923 14.7977 10.2867 22.2828 10.2867C25.6437 10.2867 29.9401 11.5337 29.9401 11.5337V17.667H28.0689C27.8263 14.3751 24.8122 11.4297 21.7631 11.4297C16.7384 11.4297 14.5556 17.425 14.5556 21.6862C14.5556 26.6756 15.9412 33.4329 22.0051 33.4329C25.1587 33.4329 28.1731 30.2454 28.1731 27.6119H30.1827V32.7405C26.6481 34.1949 25.0891 34.8193 21.2778 34.8193Z" fill="white"/>
<path d="M31.3613 34.4023V32.9829H33.4396V11.3267H31.3613V9.90597H38.0832V32.9829H40.1631V34.4023H31.3613Z" fill="white"/>
<path d="M41.0273 34.4023V32.9829H43.1067V20.023H41.0273V18.6369H47.7496V32.9829H49.8286V34.4023H41.0273Z" fill="white"/>
<path d="M69.4747 34.4023V33.0187H70.8602L70.8959 22.3452C70.8959 21.3417 70.6181 19.8845 69.371 19.8845C67.9498 19.8845 67.0147 20.9248 66.2522 21.9646C66.3212 22.4149 66.3554 22.6925 66.3554 23.3151V33.0187H67.7419V34.4023H60.3263V33.0187H61.7132V21.7542C61.6091 20.8899 61.2281 19.8845 60.2231 19.8845C58.4903 19.8845 57.7279 21.5832 57.2085 22.9356V33.0187H58.595V34.4023H50.4863V33.0187H52.5658V20.0927H50.4863V18.7071H57.2085V20.4755C58.5251 18.879 59.2875 18.4297 61.8164 18.4297C63.757 18.4297 65.0394 19.1913 65.7319 20.4384C66.8758 19.1229 68.5049 18.4297 70.9644 18.4297C74.0831 18.4297 75.5038 20.3351 75.5038 23.3151V33.0187H77.5828V34.4023H69.4747Z" fill="white"/>
<path d="M117.279 25.2903C117.279 25.2903 117.314 24.6668 117.279 24.355C117.037 20.785 114.161 18.2912 110.278 18.2912C105.602 18.2912 102.205 21.8598 102.205 26.5723C102.198 27.8213 102.419 28.9629 102.834 29.9773C102.832 31.7415 102.105 33.0517 100.617 33.0517C99.0929 33.0517 99.2665 31.3204 99.2665 30.176V20.0579H103.494V18.6369H99.2313V14.5138H94.6571V18.6369H92.9591V20.0579H94.6571V30.6649C94.4845 32.0702 93.7683 33.0517 92.4817 33.0517C90.9573 33.0517 91.1314 31.2997 91.1314 30.1553V23.3152C91.1314 19.9198 88.2209 18.2225 85.0328 18.2225C80.6317 18.2225 78.7605 20.3352 78.7605 20.3352V23.5582H80.597C80.597 23.5582 80.8053 19.2958 84.5823 19.2958C85.7947 19.2958 86.6961 20.37 86.6961 21.651C86.7303 21.9643 86.6961 23.9717 86.6961 24.4935C83.1269 24.8392 77.5477 25.9845 77.6518 30.5905C77.7213 34.2658 80.1128 34.8535 82.9875 34.8535C84.4632 34.8535 86.112 33.468 86.7737 32.6692C87.4064 34.3289 89.1546 34.8535 91.1656 34.8535C93.0855 34.8535 94.3769 34.2045 95.1596 33.1694C95.9308 34.4334 97.5092 34.8535 99.2998 34.8535C101.931 34.8535 103.386 33.6404 103.962 31.8733C105.431 33.6639 107.726 34.716 110.487 34.716C113.398 34.716 115.235 33.4331 116.689 31.0774C116.829 30.8344 117.14 30.2806 117.14 30.2806L115.996 29.657C115.303 31.3543 113.294 33.3634 111.076 33.3634C107.611 33.3634 106.918 29.5186 106.918 26.2963C106.918 25.7415 106.954 25.4298 106.954 25.2903H117.279ZM109.967 19.4347C112.393 19.4347 112.669 22.7952 112.669 24.0772H107.127C107.403 22.138 107.818 19.4347 109.967 19.4347ZM86.6961 30.8344C86.4877 31.0426 85.3101 32.1521 83.924 32.3932C82.8838 32.6023 82.1566 31.8046 82.1566 30.6253C82.1566 27.7845 83.8893 26.4677 86.6961 25.9488V30.8344Z" fill="white"/>
<path d="M133.703 34.4238H123.551V33.0025H125.698V12.4895H123.551V11.1043H133.46C137.1 11.1043 142.333 11.7623 142.333 16.3366C142.333 19.3852 139.178 20.6665 136.719 21.4988C140.184 21.9839 143.89 23.4045 143.89 27.4942C143.89 32.5522 138.485 34.4238 133.703 34.4238ZM132.942 12.4895H130.827V21.0132H133.148C135.956 21.0132 137.271 19.0728 137.271 16.5089C137.271 13.5985 135.852 12.4895 132.942 12.4895ZM133.185 22.3993H130.827V33.0025H133.426C136.752 33.0025 138.728 31.2694 138.728 27.9774C138.728 24.2362 136.752 22.3993 133.185 22.3993Z" fill="white"/>
<path d="M153.342 34.8398C148.7 34.8398 144.889 31.0967 144.889 26.5228C144.889 21.9497 148.7 18.2075 153.342 18.2075C157.985 18.2075 161.798 21.9497 161.798 26.5228C161.798 31.0967 157.985 34.8398 153.342 34.8398ZM153.342 19.5237C150.225 19.5237 149.705 23.4399 149.705 26.5228C149.705 29.5369 150.258 33.4524 153.342 33.4524C156.427 33.4524 156.98 29.5369 156.98 26.5228C156.98 23.4399 156.461 19.5237 153.342 19.5237Z" fill="white"/>
<path d="M171.956 34.4238V33.0373H173.344L173.377 22.3654C173.377 21.3607 172.754 19.9045 171.506 19.9045C169.773 19.9045 168.665 21.6024 168.146 22.9552V33.0373H169.532V34.4238H161.422V33.0373H163.502V20.1117H161.422V18.7258H168.146V20.4942C169.497 18.9001 170.571 18.4502 173.099 18.4502C176.184 18.4502 177.985 20.3902 177.985 23.3357V33.0373H180.064V34.4238H171.956Z" fill="white"/>
<path d="M147.111 9.97635H147.683V15.6924H147.111V9.97635Z" fill="white"/>
<path d="M153.319 15.6934L149.98 10.8803V15.6934H149.441V9.97752H149.98L153.219 14.6413V9.97752H153.758V15.6934H153.319Z" fill="white"/>
<path d="M155.508 9.97635H156.08V15.6924H155.508V9.97635Z" fill="white"/>
<path d="M159.776 10.4908V15.6934H159.205V10.4908H157.365V9.97694H161.573L161.656 10.4908H159.776Z" fill="white"/>
<path d="M162.711 9.97635H163.283V15.6924H162.711V9.97635Z" fill="white"/>
<path d="M166.523 9.94356H167.111L169.348 15.627L168.793 15.751L168.056 13.8455H165.553L164.849 15.693H164.27L166.523 9.94356ZM165.752 13.3407H167.857L166.805 10.6063L165.752 13.3407Z" fill="white"/>
<path d="M171.878 10.4908V15.6934H171.307V10.4908H169.467V9.97694H173.675L173.758 10.4908H171.878Z" fill="white"/>
<path d="M174.812 9.97635H175.385V15.6924H174.812V9.97635Z" fill="white"/>
<path d="M179.112 15.7266H178.599L176.371 10.0435L176.934 9.91914L178.864 14.9891L180.762 9.97658H181.358L179.112 15.7266Z" fill="white"/>
<path d="M182.281 15.6934V9.97752H185.264V10.4908H182.853V12.4462H184.759L184.841 12.9596H182.853V15.18H185.346V15.6934H182.281Z" fill="white"/>
<path d="M204.823 24.306C203.228 23.8896 200.317 23.4046 200.525 21.5686C200.697 20.1118 202.432 19.5929 204.198 19.5929C206.553 19.5929 208.011 21.707 208.114 23.5778H209.915V19.8707C209.915 19.8707 206.798 18.2418 204.544 18.2418C201.253 18.2418 197.683 19.4192 197.683 23.1267C197.719 29.4346 208.011 26.7314 207.904 31.2355C207.871 32.8631 205.48 33.6252 203.713 33.5225C202.222 33.4424 201.233 32.8594 200.582 32.072C200.377 31.8262 200.207 31.5614 200.066 31.2855C199.85 30.8673 199.696 30.4274 199.593 29.9894C199.56 29.8538 199.532 29.72 199.509 29.5872C199.467 29.3574 199.438 29.1314 199.418 28.9147H197.614V32.7925C197.32 32.9724 196.972 33.0741 196.564 33.0741C195.04 33.0741 195.213 31.3429 195.213 30.1985V9.92514H188.489V11.3116H190.602V19.2816C190.534 19.0381 188.698 17.93 186.652 18.034C182.252 18.2418 179.412 21.8455 179.412 26.0033C179.412 33.4179 183.639 35.2547 186.894 34.665C188.177 34.4587 189.565 33.7297 190.569 32.656C190.569 32.656 190.683 32.5194 190.767 32.4252C191.307 34.2949 193.134 34.877 195.247 34.877C196.802 34.877 197.944 34.4512 198.739 33.7401C199.947 34.2035 201.888 34.8506 203.333 34.8732C207.108 34.9081 211.058 33.2108 211.058 29.5043C211.058 25.6924 207.977 25.1716 204.823 24.306ZM190.569 30.8183C190.569 30.8183 189.08 32.4139 187.486 32.4139C185.891 32.4139 184.089 31.0971 184.089 28.2554C184.089 24.6507 183.672 19.4544 187.52 19.5241C189.08 19.558 190.569 21.1526 190.569 21.1526V30.8183Z" fill="white"/>
<path d="M45.2776 16.9717C43.9348 16.9717 42.8535 15.9234 42.8535 14.5811C42.8535 13.2704 43.9348 12.19 45.2776 12.19C46.6206 12.19 47.7013 13.2704 47.7013 14.5811C47.7013 15.9234 46.6206 16.9717 45.2776 16.9717Z" fill="white"/>
</svg>
