<svg width="38" height="38" viewBox="0 0 38 38" fill="none" xmlns="http://www.w3.org/2000/svg">
<rect width="37.9294" height="37.9294" rx="6" fill="#EFEAFF"/>
<path d="M18.0756 17.8824C16.6902 17.8824 15.5042 17.3985 14.5176 16.4309C13.5311 15.4632 13.0378 14.3 13.0378 12.9412C13.0378 11.5824 13.5311 10.4191 14.5176 9.45147C15.5042 8.48382 16.6902 8 18.0756 8C19.461 8 20.6469 8.48382 21.6335 9.45147C22.6201 10.4191 23.1133 11.5824 23.1133 12.9412C23.1133 14.3 22.6201 15.4632 21.6335 16.4309C20.6469 17.3985 19.461 17.8824 18.0756 17.8824ZM8 27.7647V24.3059C8 23.6265 8.17842 22.9882 8.53526 22.3912C8.89211 21.7941 9.38539 21.3412 10.0151 21.0324C11.0856 20.4971 12.2926 20.0441 13.636 19.6735C14.9794 19.3029 16.4593 19.1176 18.0756 19.1176H18.5164C18.6423 19.1176 18.7683 19.1382 18.8942 19.1794C18.7263 19.55 18.5846 19.936 18.4691 20.3375C18.3537 20.739 18.2645 21.1559 18.2015 21.5882H18.0756C16.5852 21.5882 15.2471 21.7735 14.0611 22.1441C12.8751 22.5147 11.9043 22.8853 11.1486 23.2559C10.9597 23.3588 10.8075 23.5029 10.6921 23.6882C10.5766 23.8735 10.5189 24.0794 10.5189 24.3059V25.2941H18.4534C18.5793 25.7265 18.7473 26.1537 18.9572 26.5757C19.1671 26.9978 19.398 27.3941 19.6499 27.7647H8ZM25.6322 29L25.2544 27.1471C25.0025 27.0441 24.7664 26.936 24.546 26.8228C24.3256 26.7096 24.0999 26.5706 23.869 26.4059L22.0428 26.9618L20.7834 24.8618L22.2317 23.6265C22.1898 23.3382 22.1688 23.0706 22.1688 22.8235C22.1688 22.5765 22.1898 22.3088 22.2317 22.0206L20.7834 20.7853L22.0428 18.6853L23.869 19.2412C24.0999 19.0765 24.3256 18.9375 24.546 18.8243C24.7664 18.711 25.0025 18.6029 25.2544 18.5L25.6322 16.6471H28.1511L28.529 18.5C28.7809 18.6029 29.017 18.7162 29.2374 18.8397C29.4578 18.9632 29.6835 19.1176 29.9144 19.3029L31.7406 18.6853L33 20.8471L31.5516 22.0824C31.5936 22.3294 31.6146 22.5868 31.6146 22.8544C31.6146 23.1221 31.5936 23.3794 31.5516 23.6265L33 24.8618L31.7406 26.9618L29.9144 26.4059C29.6835 26.5706 29.4578 26.7096 29.2374 26.8228C29.017 26.936 28.7809 27.0441 28.529 27.1471L28.1511 29H25.6322ZM26.8917 25.2941C27.5844 25.2941 28.1774 25.0522 28.6707 24.5684C29.1639 24.0846 29.4106 23.5029 29.4106 22.8235C29.4106 22.1441 29.1639 21.5625 28.6707 21.0787C28.1774 20.5949 27.5844 20.3529 26.8917 20.3529C26.199 20.3529 25.606 20.5949 25.1127 21.0787C24.6194 21.5625 24.3728 22.1441 24.3728 22.8235C24.3728 23.5029 24.6194 24.0846 25.1127 24.5684C25.606 25.0522 26.199 25.2941 26.8917 25.2941ZM18.0756 15.4118C18.7683 15.4118 19.3613 15.1699 19.8545 14.686C20.3478 14.2022 20.5945 13.6206 20.5945 12.9412C20.5945 12.2618 20.3478 11.6801 19.8545 11.1963C19.3613 10.7125 18.7683 10.4706 18.0756 10.4706C17.3829 10.4706 16.7899 10.7125 16.2966 11.1963C15.8033 11.6801 15.5567 12.2618 15.5567 12.9412C15.5567 13.6206 15.8033 14.2022 16.2966 14.686C16.7899 15.1699 17.3829 15.4118 18.0756 15.4118Z" fill="#8070BD"/>
</svg>
