<svg width="38" height="39" viewBox="0 0 38 39" fill="none" xmlns="http://www.w3.org/2000/svg">
<rect y="0.858887" width="37.9294" height="37.9294" rx="6" fill="#E0FDF6"/>
<path d="M19 30.0708L18.75 27.0708H18.5C16.1333 27.0708 14.125 26.2458 12.475 24.5958C10.825 22.9458 10 20.9375 10 18.5708C10 16.2041 10.825 14.1958 12.475 12.5458C14.125 10.8958 16.1333 10.0708 18.5 10.0708C19.6833 10.0708 20.7875 10.2916 21.8125 10.7333C22.8375 11.175 23.7375 11.7833 24.5125 12.5583C25.2875 13.3333 25.8958 14.2333 26.3375 15.2583C26.7792 16.2833 27 17.3875 27 18.5708C27 19.8208 26.7958 21.0208 26.3875 22.1708C25.9792 23.3208 25.4208 24.3875 24.7125 25.3708C24.0042 26.3541 23.1625 27.2458 22.1875 28.0458C21.2125 28.8458 20.15 29.5208 19 30.0708ZM21 26.4208C22.1833 25.4208 23.1458 24.25 23.8875 22.9083C24.6292 21.5666 25 20.1208 25 18.5708C25 16.7541 24.3708 15.2166 23.1125 13.9583C21.8542 12.7 20.3167 12.0708 18.5 12.0708C16.6833 12.0708 15.1458 12.7 13.8875 13.9583C12.6292 15.2166 12 16.7541 12 18.5708C12 20.3875 12.6292 21.925 13.8875 23.1833C15.1458 24.4416 16.6833 25.0708 18.5 25.0708H21V26.4208ZM18.475 24.0458C18.7583 24.0458 19 23.9458 19.2 23.7458C19.4 23.5458 19.5 23.3041 19.5 23.0208C19.5 22.7375 19.4 22.4958 19.2 22.2958C19 22.0958 18.7583 21.9958 18.475 21.9958C18.1917 21.9958 17.95 22.0958 17.75 22.2958C17.55 22.4958 17.45 22.7375 17.45 23.0208C17.45 23.3041 17.55 23.5458 17.75 23.7458C17.95 23.9458 18.1917 24.0458 18.475 24.0458ZM17.75 20.8708H19.25C19.25 20.3708 19.3 20.0208 19.4 19.8208C19.5 19.6208 19.8167 19.2541 20.35 18.7208C20.65 18.4208 20.9 18.0958 21.1 17.7458C21.3 17.3958 21.4 17.0208 21.4 16.6208C21.4 15.7708 21.1125 15.1333 20.5375 14.7083C19.9625 14.2833 19.2833 14.0708 18.5 14.0708C17.7667 14.0708 17.15 14.275 16.65 14.6833C16.15 15.0916 15.8 15.5875 15.6 16.1708L17 16.7208C17.0833 16.4375 17.2417 16.1583 17.475 15.8833C17.7083 15.6083 18.05 15.4708 18.5 15.4708C18.95 15.4708 19.2875 15.5958 19.5125 15.8458C19.7375 16.0958 19.85 16.3708 19.85 16.6708C19.85 16.9541 19.7667 17.2083 19.6 17.4333C19.4333 17.6583 19.2333 17.8875 19 18.1208C18.4167 18.6208 18.0625 19.0166 17.9375 19.3083C17.8125 19.6 17.75 20.1208 17.75 20.8708Z" fill="#3BB09C"/>
</svg>
