<svg width="38" height="39" viewBox="0 0 38 39" fill="none" xmlns="http://www.w3.org/2000/svg">
<rect y="0.929199" width="37.9294" height="37.9294" rx="6" fill="#E9EFE9"/>
<path d="M19 23L24.5 19.5L19 16V23ZM10 30C9.45 30 8.97917 29.8042 8.5875 29.4125C8.19583 29.0208 8 28.55 8 28V17H10V28H27V30H10ZM14 26C13.45 26 12.9792 25.8042 12.5875 25.4125C12.1958 25.0208 12 24.55 12 24V13H17V11C17 10.45 17.1958 9.97917 17.5875 9.5875C17.9792 9.19583 18.45 9 19 9H23C23.55 9 24.0208 9.19583 24.4125 9.5875C24.8042 9.97917 25 10.45 25 11V13H30V24C30 24.55 29.8042 25.0208 29.4125 25.4125C29.0208 25.8042 28.55 26 28 26H14ZM14 24H28V15H14V24ZM19 13H23V11H19V13Z" fill="#668666"/>
</svg>
