<svg width="32" height="32" viewBox="0 0 32 32" fill="none" xmlns="http://www.w3.org/2000/svg">
<path fill-rule="evenodd" clip-rule="evenodd" d="M28.7293 18.9212C28.6376 18.6535 28.4613 18.4199 28.2248 18.2529L26.5776 17.0866C26.3977 16.9608 26.2514 16.796 26.1507 16.6056C26.05 16.4152 25.9977 16.2046 25.998 15.9911C25.9984 15.7776 26.0515 15.5672 26.1528 15.3771C26.2542 15.1871 26.4011 15.0227 26.5814 14.8975L28.22 13.734C28.4565 13.5678 28.633 13.3348 28.7247 13.0677C28.8164 12.8006 28.8188 12.5126 28.7316 12.2441C28.1281 10.3922 27.1005 8.69334 25.7239 7.27189C25.5246 7.06774 25.2643 6.92776 24.9788 6.87114C24.6933 6.81452 24.3965 6.84403 24.1291 6.95564L22.2752 7.73895C22.0719 7.82393 21.8508 7.86185 21.6294 7.84964C21.4081 7.83742 21.1929 7.77542 21.0012 7.66864C20.8095 7.56187 20.6467 7.41331 20.5259 7.23499C20.4051 7.05666 20.3298 6.85357 20.3059 6.64213L20.0811 4.70442C20.0498 4.42371 19.9276 4.15947 19.7315 3.94893C19.5355 3.73839 19.2756 3.59216 18.9883 3.53082C18.0099 3.32152 17.0115 3.21092 16.0092 3.19995C15.001 3.21154 13.9967 3.32241 13.012 3.53082C12.7254 3.59259 12.4661 3.73857 12.27 3.94844C12.074 4.15831 11.951 4.42162 11.9183 4.70168L11.6935 6.64122C11.6688 6.85298 11.5928 7.05625 11.4716 7.23476C11.3503 7.41327 11.1871 7.56206 10.9952 7.66921C10.8032 7.77636 10.5877 7.83889 10.3661 7.85179C10.1444 7.86469 9.92262 7.82761 9.71855 7.74352L7.86364 6.9593C7.68732 6.88765 7.49779 6.85073 7.30631 6.85073C7.11483 6.85073 6.9253 6.88765 6.74898 6.9593C6.56797 7.03242 6.40601 7.1421 6.27263 7.28012C4.89524 8.70305 3.86696 10.4035 3.26305 12.2569C3.17781 12.5245 3.18114 12.8108 3.2726 13.0765C3.36405 13.3422 3.53912 13.5741 3.77369 13.7404L5.4171 14.9039C5.59668 15.0302 5.74271 15.1954 5.84337 15.3859C5.94403 15.5765 5.99648 15.7871 5.99648 16.0007C5.99648 16.2144 5.94403 16.425 5.84337 16.6155C5.74271 16.8061 5.59668 16.9712 5.4171 17.0976L3.77369 18.2629C3.53786 18.4301 3.36203 18.6634 3.27054 18.9307C3.17905 19.1979 3.17643 19.4859 3.26305 19.7546C3.86713 21.6095 4.89571 23.3115 6.27358 24.736C6.47234 24.9392 6.73178 25.0784 7.0163 25.1346C7.30082 25.1907 7.59647 25.161 7.86269 25.0495L9.72522 24.2643C9.97346 24.1629 10.2466 24.1309 10.513 24.1722C10.7793 24.2134 11.0281 24.3262 11.2305 24.4974C11.4893 24.7196 11.6538 25.0254 11.6925 25.3566L11.9164 27.2998C11.95 27.5752 12.0707 27.8341 12.2624 28.0416C12.454 28.2492 12.7073 28.3954 12.9882 28.4606C14.966 28.913 17.0277 28.913 19.0055 28.4606C19.2883 28.3964 19.5436 28.2498 19.7363 28.0411C19.929 27.8323 20.0498 27.5715 20.082 27.2943L20.3059 25.3475C20.3285 25.1359 20.4031 24.9325 20.5235 24.7539C20.6439 24.5753 20.8067 24.4266 20.9985 24.3201C21.1901 24.2123 21.4056 24.1497 21.6273 24.1373C21.8498 24.1274 22.0717 24.1674 22.2752 24.2543L24.1377 25.0385C24.4047 25.1501 24.7011 25.1795 24.9862 25.1227C25.2713 25.0659 25.531 24.9257 25.7296 24.7214C27.1052 23.2983 28.1325 21.5987 28.7364 19.7464C28.8235 19.4773 28.821 19.1889 28.7293 18.9212ZM13.9717 13.6013C13.9717 14.9506 15.5537 15.0556 16.0387 15.0556C18.1614 15.0556 20.3105 16.1909 20.3105 18.3607C20.3105 20.1515 18.846 21.2356 17.1411 21.5602V22.0624C17.1411 22.3429 17.025 22.6119 16.8182 22.8102C16.6115 23.0085 16.3311 23.12 16.0387 23.12C15.7463 23.12 15.4659 23.0085 15.2592 22.8102C15.0525 22.6119 14.9363 22.3429 14.9363 22.0624V21.5589C13.1692 21.211 12.0425 20.0145 12.0425 18.3607C12.0425 18.1152 12.1442 17.8798 12.3251 17.7063C12.506 17.5327 12.7513 17.4352 13.0071 17.4352C13.263 17.4352 13.5083 17.5327 13.6892 17.7063C13.8701 17.8798 13.9717 18.1152 13.9717 18.3607C13.9717 19.7099 15.5537 19.8149 16.0387 19.8149C16.849 19.8149 18.3813 19.5108 18.3813 18.3607C18.3813 17.2105 16.849 16.9064 16.0387 16.9064C13.6485 16.9064 12.0425 15.5783 12.0425 13.6013C12.0425 11.9472 13.1692 10.7508 14.9363 10.4031V9.63523C14.9363 9.35473 15.0525 9.08572 15.2592 8.88738C15.4659 8.68904 15.7463 8.57761 16.0387 8.57761C16.3311 8.57761 16.6115 8.68904 16.8182 8.88738C17.025 9.08572 17.1411 9.35473 17.1411 9.63523V10.3777C19.1447 10.6796 20.3105 11.8351 20.3105 13.6013C20.3105 13.8468 20.2089 14.0822 20.028 14.2557C19.8471 14.4293 19.6017 14.5268 19.3459 14.5268C19.0901 14.5268 18.8447 14.4293 18.6638 14.2557C18.4829 14.0822 18.3813 13.8468 18.3813 13.6013C18.3813 13.2037 18.3813 12.1471 16.0387 12.1471C15.5537 12.1471 13.9717 12.2521 13.9717 13.6013Z" fill="#7B5ECA"/>
</svg>
