<svg width="32" height="32" viewBox="0 0 32 32" fill="none" xmlns="http://www.w3.org/2000/svg">
<path d="M31.9992 27.7333C31.9992 28.0162 31.8868 28.2875 31.6867 28.4875C31.4867 28.6876 31.2154 28.7999 30.9325 28.7999H1.06664C0.783749 28.7999 0.512445 28.6876 0.312411 28.4875C0.112378 28.2875 0 28.0162 0 27.7333C0 27.4504 0.112378 27.1791 0.312411 26.9791C0.512445 26.779 0.783749 26.6667 1.06664 26.6667H30.9325C31.2154 26.6667 31.4867 26.779 31.6867 26.9791C31.8868 27.1791 31.9992 27.4504 31.9992 27.7333ZM1.10664 13.091C1.0432 12.8673 1.05458 12.629 1.13906 12.4124C1.22355 12.1958 1.37649 12.0127 1.57463 11.8911L15.4409 3.35795C15.609 3.25464 15.8023 3.19995 15.9996 3.19995C16.1968 3.19995 16.3902 3.25464 16.5582 3.35795L30.4245 11.8911C30.6227 12.0126 30.7758 12.1955 30.8604 12.4121C30.9451 12.6286 30.9566 12.8668 30.8934 13.0906C30.8301 13.3143 30.6955 13.5112 30.51 13.6514C30.3246 13.7915 30.0984 13.8672 29.8659 13.867H26.666V22.4001H28.7992C29.0821 22.4001 29.3534 22.5125 29.5535 22.7125C29.7535 22.9126 29.8659 23.1839 29.8659 23.4667C29.8659 23.7496 29.7535 24.0209 29.5535 24.221C29.3534 24.421 29.0821 24.5334 28.7992 24.5334H3.19992C2.91703 24.5334 2.64572 24.421 2.44569 24.221C2.24565 24.0209 2.13328 23.7496 2.13328 23.4667C2.13328 23.1839 2.24565 22.9126 2.44569 22.7125C2.64572 22.5125 2.91703 22.4001 3.19992 22.4001H5.33319V13.867H2.13328C1.901 13.8671 1.67505 13.7913 1.48975 13.6513C1.30445 13.5112 1.16993 13.3145 1.10664 13.091ZM18.1329 21.3335C18.1329 21.6164 18.2452 21.8877 18.4453 22.0877C18.6453 22.2877 18.9166 22.4001 19.1995 22.4001C19.4824 22.4001 19.7537 22.2877 19.9537 22.0877C20.1538 21.8877 20.2661 21.6164 20.2661 21.3335V14.9336C20.2661 14.6508 20.1538 14.3795 19.9537 14.1794C19.7537 13.9794 19.4824 13.867 19.1995 13.867C18.9166 13.867 18.6453 13.9794 18.4453 14.1794C18.2452 14.3795 18.1329 14.6508 18.1329 14.9336V21.3335ZM11.733 21.3335C11.733 21.6164 11.8454 21.8877 12.0454 22.0877C12.2455 22.2877 12.5168 22.4001 12.7997 22.4001C13.0826 22.4001 13.3539 22.2877 13.5539 22.0877C13.7539 21.8877 13.8663 21.6164 13.8663 21.3335V14.9336C13.8663 14.6508 13.7539 14.3795 13.5539 14.1794C13.3539 13.9794 13.0826 13.867 12.7997 13.867C12.5168 13.867 12.2455 13.9794 12.0454 14.1794C11.8454 14.3795 11.733 14.6508 11.733 14.9336V21.3335Z" fill="#7B5ECA"/>
</svg>
