<svg width="24" height="23" viewBox="0 0 24 23" fill="none" xmlns="http://www.w3.org/2000/svg">
<path d="M2.66841 20.0495C2.40501 20.0495 2.18422 19.9604 2.00604 19.7822C1.82786 19.604 1.73877 19.3832 1.73877 19.1198C1.73877 18.8564 1.82786 18.6357 2.00604 18.4575C2.18422 18.2793 2.40501 18.1902 2.66841 18.1902H21.2613C21.5247 18.1902 21.7454 18.2793 21.9236 18.4575C22.1018 18.6357 22.1909 18.8564 22.1909 19.1198C22.1909 19.3832 22.1018 19.604 21.9236 19.7822C21.7454 19.9604 21.5247 20.0495 21.2613 20.0495H2.66841ZM4.5277 17.2606C4.01639 17.2606 3.57869 17.0785 3.21458 16.7144C2.85047 16.3503 2.66841 15.9126 2.66841 15.4013V5.1752C2.66841 4.6639 2.85047 4.22619 3.21458 3.86208C3.57869 3.49797 4.01639 3.31592 4.5277 3.31592H19.402C19.9133 3.31592 20.351 3.49797 20.7151 3.86208C21.0792 4.22619 21.2613 4.6639 21.2613 5.1752V15.4013C21.2613 15.9126 21.0792 16.3503 20.7151 16.7144C20.351 17.0785 19.9133 17.2606 19.402 17.2606H4.5277ZM4.5277 15.4013H19.402V5.1752H4.5277V15.4013Z" fill="#6C8ECF"/>
</svg>
