<svg width="18" height="18" viewBox="0 0 18 18" fill="none" xmlns="http://www.w3.org/2000/svg">
<path d="M3 16.5C2.5875 16.5 2.23437 16.3531 1.94062 16.0594C1.64687 15.7656 1.5 15.4125 1.5 15V6.75C1.5 6.3375 1.64687 5.98437 1.94062 5.69062C2.23437 5.39687 2.5875 5.25 3 5.25H6.75V3C6.75 2.5875 6.89687 2.23437 7.19062 1.94062C7.48437 1.64687 7.8375 1.5 8.25 1.5H9.75C10.1625 1.5 10.5156 1.64687 10.8094 1.94062C11.1031 2.23437 11.25 2.5875 11.25 3V5.25H15C15.4125 5.25 15.7656 5.39687 16.0594 5.69062C16.3531 5.98437 16.5 6.3375 16.5 6.75V15C16.5 15.4125 16.3531 15.7656 16.0594 16.0594C15.7656 16.3531 15.4125 16.5 15 16.5H3ZM3 15H15V6.75H11.25C11.25 7.1625 11.1031 7.51562 10.8094 7.80937C10.5156 8.10312 10.1625 8.25 9.75 8.25H8.25C7.8375 8.25 7.48437 8.10312 7.19062 7.80937C6.89687 7.51562 6.75 7.1625 6.75 6.75H3V15ZM4.5 13.5H9V13.1625C9 12.95 8.94062 12.7531 8.82187 12.5719C8.70312 12.3906 8.5375 12.25 8.325 12.15C8.075 12.0375 7.82187 11.9531 7.56562 11.8969C7.30937 11.8406 7.0375 11.8125 6.75 11.8125C6.4625 11.8125 6.19062 11.8406 5.93437 11.8969C5.67812 11.9531 5.425 12.0375 5.175 12.15C4.9625 12.25 4.79687 12.3906 4.67812 12.5719C4.55937 12.7531 4.5 12.95 4.5 13.1625V13.5ZM10.5 12.375H13.5V11.25H10.5V12.375ZM6.75 11.25C7.0625 11.25 7.32812 11.1406 7.54687 10.9219C7.76562 10.7031 7.875 10.4375 7.875 10.125C7.875 9.8125 7.76562 9.54688 7.54687 9.32812C7.32812 9.10937 7.0625 9 6.75 9C6.4375 9 6.17187 9.10937 5.95312 9.32812C5.73437 9.54688 5.625 9.8125 5.625 10.125C5.625 10.4375 5.73437 10.7031 5.95312 10.9219C6.17187 11.1406 6.4375 11.25 6.75 11.25ZM10.5 10.125H13.5V9H10.5V10.125ZM8.25 6.75H9.75V3H8.25V6.75Z" fill="black"/>
</svg>
