<svg width="19" height="17" viewBox="0 0 19 17" fill="none" xmlns="http://www.w3.org/2000/svg">
<g id="Group 1">
<path id="Vector" d="M17.0194 1.38158L16.2835 0.645638C16.0755 0.437647 15.6915 0.469656 15.4515 0.757601L12.8913 3.30157C11.7392 2.80562 10.4754 2.56562 9.14731 2.56562C5.19519 2.58156 1.77141 4.88553 0.12329 8.19774C0.0272626 8.40573 0.0272626 8.66166 0.12329 8.83765C0.891223 10.4057 2.04329 11.7017 3.4833 12.6776L1.3873 14.8056C1.1473 15.0456 1.11529 15.4296 1.27534 15.6376L2.01128 16.3735C2.21928 16.5815 2.60326 16.5495 2.84326 16.2616L16.8912 2.21369C17.1952 1.97383 17.2272 1.58987 17.0192 1.38185L17.0194 1.38158ZM9.9953 6.21347C9.72329 6.14945 9.43534 6.06949 9.16332 6.06949C7.80327 6.06949 6.71538 7.15752 6.71538 8.51743C6.71538 8.78943 6.7794 9.07738 6.85935 9.3494L5.78724 10.4054C5.46728 9.84548 5.2913 9.22138 5.2913 8.51746C5.2913 6.38948 7.00332 4.67746 9.1313 4.67746C9.83536 4.67746 10.4593 4.85344 11.0193 5.1734L9.9953 6.21347Z" fill="#666666" fill-opacity="0.8"/>
<path id="Vector_2" d="M18.1714 8.19792C17.6114 7.07787 16.8753 6.06994 15.9634 5.25391L12.9874 8.19792V8.51787C12.9874 10.6459 11.2754 12.3579 9.14739 12.3579H8.82744L6.93945 14.2459C7.64351 14.3898 8.37946 14.4859 9.09946 14.4859C13.0516 14.4859 16.4754 12.1819 18.1235 8.85374C18.2675 8.62967 18.2675 8.40576 18.1714 8.19775L18.1714 8.19792Z" fill="#666666" fill-opacity="0.8"/>
</g>
</svg>