<svg width="202" height="200" viewBox="0 0 202 200" fill="none" xmlns="http://www.w3.org/2000/svg">
<path d="M62.5977 89.9002C63.8595 88.9462 65.1469 88.0229 66.4856 87.1561L71.3636 84.0067L77.6725 92.3982L78.2111 92.1776V58.7246H62.6028V89.9054L62.5977 89.9002Z" stroke="#0C81A8" stroke-width="2"/>
<path d="M93.1992 77.4464C95.7998 77.1233 98.4105 76.954 101.006 76.954C103.601 76.954 106.202 77.1233 108.813 77.4515V58.7246H93.2043V77.4464H93.1992Z" stroke="#0C81A8" stroke-width="2"/>
<path d="M171.733 58.7197H156.125V108.648L157.664 111.028L156.125 112.187V116.983H171.733V58.7197Z" stroke="#0C81A8" stroke-width="2"/>
<path d="M190.028 40.2178H11.9766V51.9227H190.028V40.2178Z" stroke="#0C81A8" stroke-width="2"/>
<path d="M190.028 34.1963L101 2L11.9766 34.1963H101H190.028Z" stroke="#0C81A8" stroke-width="2"/>
<path d="M190.029 124.153H162.629L163.321 127.426C163.911 130.216 164.316 133.042 164.532 135.858H190.029V124.153Z" stroke="#0C81A8" stroke-width="2"/>
<path d="M123.793 92.183L124.48 92.4702L130.82 84.0942L135.688 87.2589C136.97 88.0899 138.201 88.9823 139.406 89.8954V58.7197H123.798V92.183H123.793Z" stroke="#0C81A8" stroke-width="2"/>
<path d="M30.2656 116.983H45.8791V111.951L44.4224 110.853L45.8791 108.617V58.7197H30.2656V116.983Z" stroke="#0C81A8" stroke-width="2"/>
<path d="M164.716 140.67C164.716 145.122 164.229 149.641 163.27 154.103L162.172 159.207H201V140.67H164.716Z" stroke="#0C81A8" stroke-width="2"/>
<path d="M38.6847 153.914C37.7563 149.528 37.2844 145.071 37.2844 140.67H1V159.207H39.8028L38.6847 153.914Z" stroke="#0C81A8" stroke-width="2"/>
<path d="M38.7308 127.236L39.3924 124.153H11.9766V135.858H37.4741C37.6947 132.981 38.1153 130.098 38.7308 127.236Z" stroke="#0C81A8" stroke-width="2"/>
<path d="M123.432 141.455L132.09 141.008C132.142 136.895 131.372 132.74 129.736 128.796L121.529 131.601L119.472 128.483L117.416 125.364L123.222 118.927C120.242 115.875 116.728 113.531 112.922 111.956L109.106 119.742L105.444 118.994L101.782 118.245L101.335 109.587C97.2216 109.535 93.0669 110.305 89.1225 111.941L91.9282 120.148L88.8097 122.205L85.6911 124.261L79.2538 118.455C76.2019 121.435 73.8579 124.949 72.2832 128.755L80.0694 132.571L79.3205 136.233L78.5717 139.895L69.9135 140.342C69.8622 144.455 70.6316 148.61 72.2678 152.554L80.4746 149.749L82.5314 152.867L84.5883 155.986L78.782 162.423C81.7621 165.475 85.2756 167.819 89.0815 169.394L92.8977 161.608L96.56 162.356L100.222 163.105L100.668 171.763C104.782 171.815 108.937 171.045 112.881 169.409L110.076 161.202L113.194 159.145L116.313 157.089L122.75 162.895C125.802 159.915 128.146 156.401 129.721 152.595L121.934 148.779L122.683 145.117L123.432 141.455ZM103.782 154.98C95.8778 156.514 88.2249 151.354 86.6913 143.45C85.1576 135.546 90.3176 127.893 98.2218 126.359C106.126 124.826 113.779 129.986 115.313 137.89C116.846 145.794 111.686 153.447 103.782 154.98ZM144.719 122.641L141.672 115.26L149.278 109.54C144.878 102.729 139.087 96.9122 132.285 92.4908L126.54 100.082L119.165 97.0148L111.789 93.9475L113.127 84.4994C109.214 83.6582 105.167 83.1914 101.002 83.1914C96.8369 83.1914 92.9079 83.6377 89.0456 84.4532L90.3536 93.9116L82.9726 96.9583L75.5916 100.005L69.8724 92.3984C63.0608 96.7993 57.2442 102.59 52.8228 109.392L60.4141 115.136L57.3468 122.512L54.2795 129.888L44.8314 128.549C43.9902 132.463 43.5234 136.51 43.5234 140.675C43.5234 144.84 43.9697 148.769 44.7852 152.631L54.2436 151.323L57.2904 158.704L60.3371 166.085L52.7305 171.804C57.1314 178.616 62.9223 184.433 69.7237 188.854L75.4684 181.263L82.8443 184.33L90.2202 187.397L88.8815 196.845C92.7951 197.687 96.8421 198.153 101.007 198.153C105.172 198.153 109.101 197.707 112.963 196.892L111.655 187.433L119.036 184.387L126.417 181.34L132.136 188.946C138.948 184.546 144.765 178.755 149.186 171.953L141.595 166.208L144.662 158.833L147.729 151.457L157.178 152.795C158.019 148.882 158.485 144.835 158.485 140.67C158.485 136.505 158.039 132.576 157.224 128.714L147.765 130.022L144.719 122.641ZM101.002 176.241C81.3568 176.241 65.4305 160.315 65.4305 140.67C65.4305 121.025 81.3568 105.098 101.002 105.098C120.647 105.098 136.573 121.025 136.573 140.67C136.573 160.315 120.647 176.241 101.002 176.241ZM102.13 146.481C98.9194 147.107 95.8162 145.009 95.1904 141.798C94.5647 138.587 96.6625 135.484 99.8735 134.858C103.084 134.233 106.188 136.331 106.813 139.541C107.439 142.752 105.341 145.856 102.13 146.481Z" stroke="#0DB04B" stroke-width="2"/>
</svg>
