<svg width="25" height="25" viewBox="0 0 25 25" fill="none" xmlns="http://www.w3.org/2000/svg">
<path d="M11.6437 19.3553H13.3519V18.1352C14.1654 17.9888 14.8649 17.6715 15.4506 17.1835C16.0363 16.6954 16.3291 15.9714 16.3291 15.0116C16.3291 14.3283 16.1339 13.702 15.7434 13.1326C15.353 12.5631 14.5721 12.067 13.4007 11.644C12.4246 11.3186 11.7495 11.0339 11.3753 10.7899C11.0011 10.5458 10.814 10.2123 10.814 9.78933C10.814 9.36634 10.9645 9.03283 11.2655 8.7888C11.5664 8.54477 12.0016 8.42275 12.571 8.42275C13.0916 8.42275 13.4984 8.54884 13.7912 8.801C14.084 9.05317 14.2955 9.36634 14.4257 9.74052L15.9875 9.10604C15.8085 8.53663 15.4791 8.04044 14.9991 7.61745C14.5192 7.19446 13.9864 6.95857 13.4007 6.90976V5.6896H11.6925V6.90976C10.8791 7.08872 10.2446 7.44663 9.78908 7.9835C9.33356 8.52037 9.1058 9.12231 9.1058 9.78933C9.1058 10.554 9.32949 11.1722 9.77688 11.644C10.2243 12.1158 10.9279 12.5225 11.8878 12.8641C12.9127 13.2383 13.6244 13.5718 14.023 13.8646C14.4216 14.1575 14.6209 14.5398 14.6209 15.0116C14.6209 15.5485 14.4297 15.943 14.0474 16.1951C13.6651 16.4473 13.2055 16.5734 12.6687 16.5734C12.1318 16.5734 11.6559 16.4066 11.2411 16.0731C10.8262 15.7396 10.5212 15.2394 10.326 14.5723L8.71535 15.2068C8.94311 15.9877 9.29695 16.6181 9.77688 17.0981C10.2568 17.578 10.8791 17.9074 11.6437 18.0864V19.3553ZM12.5222 22.2837C11.1719 22.2837 9.90296 22.0275 8.71535 21.515C7.52773 21.0026 6.49466 20.3071 5.61615 19.4286C4.73764 18.55 4.04215 17.517 3.52968 16.3294C3.01722 15.1417 2.76099 13.8728 2.76099 12.5225C2.76099 11.1722 3.01722 9.90321 3.52968 8.71559C4.04215 7.52797 4.73764 6.49491 5.61615 5.61639C6.49466 4.73788 7.52773 4.04239 8.71535 3.52993C9.90296 3.01746 11.1719 2.76123 12.5222 2.76123C13.8725 2.76123 15.1415 3.01746 16.3291 3.52993C17.5167 4.04239 18.5498 4.73788 19.4283 5.61639C20.3068 6.49491 21.0023 7.52797 21.5148 8.71559C22.0272 9.90321 22.2835 11.1722 22.2835 12.5225C22.2835 13.8728 22.0272 15.1417 21.5148 16.3294C21.0023 17.517 20.3068 18.55 19.4283 19.4286C18.5498 20.3071 17.5167 21.0026 16.3291 21.515C15.1415 22.0275 13.8725 22.2837 12.5222 22.2837ZM12.5222 20.3315C14.7022 20.3315 16.5487 19.575 18.0617 18.062C19.5747 16.549 20.3312 14.7025 20.3312 12.5225C20.3312 10.3425 19.5747 8.49596 18.0617 6.98297C16.5487 5.46998 14.7022 4.71348 12.5222 4.71348C10.3422 4.71348 8.49572 5.46998 6.98273 6.98297C5.46973 8.49596 4.71324 10.3425 4.71324 12.5225C4.71324 14.7025 5.46973 16.549 6.98273 18.062C8.49572 19.575 10.3422 20.3315 12.5222 20.3315Z" fill="#9E8DDC"/>
</svg>
