<svg width="30" height="30" viewBox="0 0 30 30" fill="none" xmlns="http://www.w3.org/2000/svg">
<path d="M15 0C6.729 0 0 6.729 0 15C0 23.271 6.729 30 15 30C23.271 30 30 23.271 30 15C30 6.729 23.271 0 15 0ZM3 15C3 13.6515 3.234 12.357 3.6465 11.1465L6 13.5L9 16.5V19.5L12 22.5L13.5 24V26.8965C7.5915 26.154 3 21.108 3 15ZM24.495 22.3095C23.5155 21.5205 22.0305 21 21 21V19.5C21 18.7044 20.6839 17.9413 20.1213 17.3787C19.5587 16.8161 18.7956 16.5 18 16.5H12V12C12.7956 12 13.5587 11.6839 14.1213 11.1213C14.6839 10.5587 15 9.79565 15 9V7.5H16.5C17.2956 7.5 18.0587 7.18393 18.6213 6.62132C19.1839 6.05871 19.5 5.29565 19.5 4.5V3.8835C23.892 5.667 27 9.975 27 15C26.9997 17.647 26.1184 20.2187 24.495 22.3095Z" fill="#717171"/>
</svg>
