<svg width="16" height="16" viewBox="0 0 16 16" fill="none" xmlns="http://www.w3.org/2000/svg">
<path d="M7.96536 11.9997C8.1987 11.9997 8.39592 11.9191 8.55703 11.758C8.71814 11.5969 8.7987 11.3997 8.7987 11.1663C8.7987 10.933 8.71814 10.7358 8.55703 10.5747C8.39592 10.4136 8.1987 10.333 7.96536 10.333C7.73203 10.333 7.53481 10.4136 7.3737 10.5747C7.21259 10.7358 7.13203 10.933 7.13203 11.1663C7.13203 11.3997 7.21259 11.5969 7.3737 11.758C7.53481 11.9191 7.73203 11.9997 7.96536 11.9997ZM7.36537 9.43301H8.5987C8.5987 9.06634 8.64037 8.77745 8.7237 8.56634C8.80703 8.35523 9.04314 8.06634 9.43203 7.69967C9.72092 7.41079 9.9487 7.13579 10.1154 6.87467C10.282 6.61356 10.3654 6.29967 10.3654 5.93301C10.3654 5.31079 10.1376 4.83301 9.68203 4.49967C9.22648 4.16634 8.68759 3.99967 8.06536 3.99967C7.43203 3.99967 6.91814 4.16634 6.5237 4.49967C6.12925 4.83301 5.85425 5.23301 5.6987 5.69967L6.7987 6.13301C6.85425 5.93301 6.97925 5.71634 7.1737 5.48301C7.36814 5.24967 7.66536 5.13301 8.06536 5.13301C8.42092 5.13301 8.68759 5.23023 8.86537 5.42467C9.04314 5.61912 9.13203 5.83301 9.13203 6.06634C9.13203 6.28856 9.06536 6.4969 8.93203 6.69134C8.7987 6.88579 8.63203 7.06634 8.43203 7.23301C7.94314 7.66634 7.64314 7.99412 7.53203 8.21634C7.42092 8.43856 7.36537 8.84412 7.36537 9.43301ZM7.9987 14.6663C7.07648 14.6663 6.20981 14.4913 5.3987 14.1413C4.58759 13.7913 3.88203 13.3163 3.28203 12.7163C2.68203 12.1163 2.20703 11.4108 1.85703 10.5997C1.50703 9.78856 1.33203 8.9219 1.33203 7.99967C1.33203 7.07745 1.50703 6.21079 1.85703 5.39967C2.20703 4.58856 2.68203 3.88301 3.28203 3.28301C3.88203 2.68301 4.58759 2.20801 5.3987 1.85801C6.20981 1.50801 7.07648 1.33301 7.9987 1.33301C8.92092 1.33301 9.78759 1.50801 10.5987 1.85801C11.4098 2.20801 12.1154 2.68301 12.7154 3.28301C13.3154 3.88301 13.7904 4.58856 14.1404 5.39967C14.4904 6.21079 14.6654 7.07745 14.6654 7.99967C14.6654 8.9219 14.4904 9.78856 14.1404 10.5997C13.7904 11.4108 13.3154 12.1163 12.7154 12.7163C12.1154 13.3163 11.4098 13.7913 10.5987 14.1413C9.78759 14.4913 8.92092 14.6663 7.9987 14.6663ZM7.9987 13.333C9.48759 13.333 10.7487 12.8163 11.782 11.783C12.8154 10.7497 13.332 9.48856 13.332 7.99967C13.332 6.51079 12.8154 5.24967 11.782 4.21634C10.7487 3.18301 9.48759 2.66634 7.9987 2.66634C6.50981 2.66634 5.2487 3.18301 4.21536 4.21634C3.18203 5.24967 2.66536 6.51079 2.66536 7.99967C2.66536 9.48856 3.18203 10.7497 4.21536 11.783C5.2487 12.8163 6.50981 13.333 7.9987 13.333Z" fill="#0B80A8"/>
</svg>
