<svg width="16" height="16" viewBox="0 0 16 16" fill="none" xmlns="http://www.w3.org/2000/svg">
<path d="M7.325 13.25H8.6375V12.3125C9.2625 12.2 9.8 11.9563 10.25 11.5813C10.7 11.2063 10.925 10.65 10.925 9.9125C10.925 9.3875 10.775 8.90625 10.475 8.46875C10.175 8.03125 9.575 7.65 8.675 7.325C7.925 7.075 7.40625 6.85625 7.11875 6.66875C6.83125 6.48125 6.6875 6.225 6.6875 5.9C6.6875 5.575 6.80313 5.31875 7.03438 5.13125C7.26563 4.94375 7.6 4.85 8.0375 4.85C8.4375 4.85 8.75 4.94688 8.975 5.14062C9.2 5.33438 9.3625 5.575 9.4625 5.8625L10.6625 5.375C10.525 4.9375 10.2719 4.55625 9.90313 4.23125C9.53438 3.90625 9.125 3.725 8.675 3.6875V2.75H7.3625V3.6875C6.7375 3.825 6.25 4.1 5.9 4.5125C5.55 4.925 5.375 5.3875 5.375 5.9C5.375 6.4875 5.54688 6.9625 5.89062 7.325C6.23438 7.6875 6.775 8 7.5125 8.2625C8.3 8.55 8.84688 8.80625 9.15313 9.03125C9.45938 9.25625 9.6125 9.55 9.6125 9.9125C9.6125 10.325 9.46563 10.6281 9.17188 10.8219C8.87813 11.0156 8.525 11.1125 8.1125 11.1125C7.7 11.1125 7.33438 10.9844 7.01563 10.7281C6.69688 10.4719 6.4625 10.0875 6.3125 9.575L5.075 10.0625C5.25 10.6625 5.52188 11.1469 5.89062 11.5156C6.25938 11.8844 6.7375 12.1375 7.325 12.275V13.25ZM8 15.5C6.9625 15.5 5.9875 15.3031 5.075 14.9094C4.1625 14.5156 3.36875 13.9813 2.69375 13.3063C2.01875 12.6313 1.48438 11.8375 1.09063 10.925C0.696875 10.0125 0.5 9.0375 0.5 8C0.5 6.9625 0.696875 5.9875 1.09063 5.075C1.48438 4.1625 2.01875 3.36875 2.69375 2.69375C3.36875 2.01875 4.1625 1.48438 5.075 1.09063C5.9875 0.696875 6.9625 0.5 8 0.5C9.0375 0.5 10.0125 0.696875 10.925 1.09063C11.8375 1.48438 12.6313 2.01875 13.3063 2.69375C13.9813 3.36875 14.5156 4.1625 14.9094 5.075C15.3031 5.9875 15.5 6.9625 15.5 8C15.5 9.0375 15.3031 10.0125 14.9094 10.925C14.5156 11.8375 13.9813 12.6313 13.3063 13.3063C12.6313 13.9813 11.8375 14.5156 10.925 14.9094C10.0125 15.3031 9.0375 15.5 8 15.5ZM8 14C9.675 14 11.0938 13.4188 12.2563 12.2563C13.4188 11.0938 14 9.675 14 8C14 6.325 13.4188 4.90625 12.2563 3.74375C11.0938 2.58125 9.675 2 8 2C6.325 2 4.90625 2.58125 3.74375 3.74375C2.58125 4.90625 2 6.325 2 8C2 9.675 2.58125 11.0938 3.74375 12.2563C4.90625 13.4188 6.325 14 8 14Z" fill="#000000"/>
</svg>
