<svg width="1450" height="819" viewBox="0 0 1450 819" fill="none" xmlns="http://www.w3.org/2000/svg">
<path opacity="0.3" d="M376.584 807.774L382.85 811.577L388.788 813.168L388.044 816.36L384.472 816.68L381.773 814.422L381.327 817.008L378.673 819L374.251 818.276L370.796 816.35L366.427 815.425L360.326 811.864L355.18 808.454L347.386 801.401L351.073 802.718L357.989 806.923L363.93 809.193L364.993 806.295L364.88 801.989L367.702 799.404L370.737 800.141L373.148 803.048L376.584 807.774ZM408.054 790.595L411.936 793.378L411.295 795.551L406.432 797.418L404.078 795.24L401.458 798.041L398.725 795.24L402.514 791.522L406.294 793.069L408.054 790.595ZM924.031 782.062L917.745 782.459L918.558 779.214L919.849 776.71L920.465 775.468L922.544 777.377L926.146 778.136L925.957 779.29L924.031 782.062ZM1253.86 729.423L1257.02 731.399L1259.67 730.614L1263.47 729.513L1265.82 729.897L1262.86 736.717L1260.45 738.707L1257.7 743.372L1257.04 741.781L1252.12 745.835L1251.41 745.522L1248.95 745.34L1248.83 740.367L1250.1 736.551L1250.03 731.542L1251.34 728.916L1253.86 729.423ZM1369.82 730.147L1369.47 732.514L1373.75 730.191L1373.62 732.613L1372.26 735.032L1369.18 737.703L1363.97 741.969L1360.47 744.307L1360.34 747.111L1357.09 747.183L1352.22 749.387L1348.78 753.229L1342.73 759.204L1337.83 761.857L1334.71 763.556L1331.02 763.43L1329.6 761.467L1325.4 761.049L1326.05 758.871L1330.92 754.488L1339.57 748.693L1342.9 747.593L1347.18 745.373L1352.52 742.327L1356.74 739.319L1361.03 735.017L1363.43 733.562L1365.82 730.359L1370.21 727.717L1369.82 730.147ZM1390.33 703.282L1390.58 709.154L1392.53 705.341L1393.73 706.862L1392.27 711.093L1394.78 712.922L1397.43 713.372L1400.96 711.23L1402.79 711.878L1399.17 716.871L1396.14 720.169L1392.96 720.052L1390.91 721.775L1389.99 724.218L1388.79 725.277L1385.5 728.35L1381.23 732.271L1376.68 734.562L1376.82 733.053L1375.53 732.226L1380.56 727.518L1380.88 724.383L1377.53 722.11L1378.73 720.057L1382.82 718.084L1385.76 713.746L1387.37 710.117L1387.47 706.372L1388.06 705.389L1387.11 703.091L1386.01 698.183L1385.97 694.274L1387.76 693.842L1388.73 696.907L1391.42 698.34L1390.33 703.282ZM1385.05 628.073L1383.03 629.326L1380.95 627.915L1378.37 625.568L1376.19 622.811L1374.12 619.148L1373.92 617.39L1375.82 617.464L1377.91 619.227L1379.45 620.993L1380.52 622.448L1383.36 625.675L1385.05 628.073ZM1441.33 603.112L1442.55 604.596L1441.21 607.285L1438.27 607.993L1435.94 607.356L1436.02 605.091L1438.13 603.324L1440.03 603.96L1441.33 603.112ZM1446.37 600.344L1443.27 601.427L1443.1 599.512L1445.56 598.459L1447.04 598.177L1450 596.578L1449.49 599.081L1446.37 600.344ZM1395.01 598.625L1393.39 599.3L1392.32 597.054L1392.74 595.68L1395.01 598.625ZM1393.13 590.777L1393.13 594.902L1392.04 594.259L1391.05 594.537L1390.66 593.124L1391.25 589.206L1393.13 590.777ZM866.934 583.743L867.355 589.882L868.394 592.273L867.814 594.728L866.935 596.235L865.573 593.234L864.646 594.749L865.291 598.546L864.766 600.723L863.457 601.91L862.91 606.268L860.761 612.282L858.07 619.419L854.595 629.282L852.322 636.561L849.817 642.66L846.114 643.909L842.069 646.143L839.634 644.794L836.274 642.907L835.268 640.127L835.325 635.47L834.061 631.296L833.914 627.538L834.962 623.782L837.073 622.881L837.198 621.151L839.582 617.217L840.188 613.919L839.298 611.472L838.638 608.217L838.542 603.472L840.262 600.597L841.031 597.342L843.279 597.153L845.838 596.102L847.549 595.175L849.526 595.107L852.235 592.19L856.092 589.042L857.566 586.474L857.053 584.294L858.939 584.907L861.583 581.366L861.799 578.307L863.388 576.033L864.87 578.215L865.973 580.379L866.934 583.743ZM1288.07 584.803L1289.13 588.807L1292.29 586.882L1293.47 589.043L1295.33 591.038L1294.52 593.305L1294.77 597.698L1295.02 600.26L1296.04 600.887L1296.48 605.282L1295.55 607.953L1296.33 611.453L1300.64 614.153L1303.29 616.614L1305.81 618.87L1304.95 620.128L1306.78 623.386L1307.21 629.026L1309.26 627.879L1310.52 630.142L1311.8 629.339L1311.2 634.884L1313.52 638.106L1315.05 640.113L1317.36 644.379L1317.4 648.628L1316.63 651.65L1315.35 654.939L1316.05 659.469L1314.3 664.205L1312.73 666.69L1309.94 671.493L1308.96 674.591L1306.74 678.475L1303.03 683.425L1298.83 686.108L1295.65 690.352L1293.17 693.069L1290.03 697.831L1287.26 700.591L1284.48 704.75L1282.33 708.594L1281.8 710.364L1278.52 712.312L1273.66 712.517L1268.74 714.822L1265.85 717.005L1262.23 719.43L1259.79 716.933L1257.61 715.939L1259.51 713.006L1256.73 714.069L1251.29 718.151L1248.26 716.62L1246.22 715.728L1243.96 715.325L1240.5 713.698L1239.13 710.239L1240 705.995L1240.08 703.182L1238.82 700.929L1234.94 700.261L1237.34 697.576L1237.77 693.479L1234.29 697.297L1230.1 698.313L1233.45 695.257L1235.22 692.078L1237.82 689.389L1238.86 685.335L1233.75 690.005L1230.4 691.883L1227.21 696.265L1224.64 693.996L1225.78 691.076L1224.41 687.1L1222.8 685.051L1224.03 683.791L1219.51 680.49L1216.5 680.335L1213.13 677.69L1205.18 678.204L1198.96 680.149L1193.47 681.965L1189.43 681.604L1183.99 684.4L1179.85 685.66L1178.13 688.53L1175.85 690.759L1172.14 690.892L1169.27 691.381L1165.76 690.379L1162.47 690.979L1159.43 691.231L1155.96 694.165L1154.78 693.916L1152.14 695.474L1149.53 697.23L1146.46 697.013L1143.57 697.011L1140.06 693.488L1138.05 692.443L1139.05 689.295L1141.42 688.548L1142.51 687.301L1142.91 685.337L1144.5 681.545L1144.89 678.323L1144.03 672.85L1144.1 669.77L1145.05 666.706L1144.15 663.214L1144.42 661.641L1142.97 659.512L1143.38 655.336L1141.79 651.129L1141.67 648.868L1143.11 651.16L1142.67 646.248L1144.54 647.781L1145.41 649.832L1145.91 647.12L1144.59 642.962L1144.5 641.303L1143.79 639.728L1144.86 636.689L1146.02 635.398L1147.12 632.777L1147.21 629.72L1149.72 625.966L1149.34 629.94L1151.87 626.35L1155.8 624.608L1158.35 622.389L1162.09 620.482L1164.19 620.076L1165.31 620.717L1169.15 618.782L1171.96 618.207L1172.83 617.071L1174.09 616.598L1176.54 616.72L1181.49 615.204L1184.3 612.907L1185.89 610.146L1188.93 607.528L1189.45 605.472L1189.99 602.675L1193.76 598.311L1195.01 602.745L1197.07 601.72L1195.82 599.293L1197.58 596.804L1199.41 597.915L1200.5 594.016L1203.29 591.499L1204.63 589.482L1207.01 588.612L1207.26 587.185L1209.16 587.781L1209.4 586.498L1211.47 585.767L1213.73 585.08L1216.77 587.421L1218.87 590.446L1221.68 590.481L1224.48 590.961L1223.9 588.155L1226.57 584.064L1228.77 582.732L1228.22 581.46L1230.51 578.553L1233.45 576.76L1235.69 577.364L1239.59 576.406L1239.79 573.81L1236.65 572.139L1239.13 571.402L1242 572.66L1244.17 574.742L1247.83 576.042L1249.17 575.528L1251.79 577.09L1254.6 575.635L1256.24 576.077L1257.41 575.101L1259.19 577.615L1257.66 580.338L1255.69 582.395L1254.12 582.565L1254.39 584.602L1252.73 587.151L1250.78 589.661L1250.9 591.104L1254.07 593.93L1257.28 595.571L1259.33 597.336L1262.09 600.376L1263.35 600.371L1265.48 601.687L1265.9 603.275L1269.88 605.02L1273.14 603.262L1274.49 600.502L1275.77 598.227L1276.78 595.417L1278.76 591.345L1278.5 588.873L1279.04 587.388L1278.92 584.469L1280.01 580.631L1281.01 579.597L1280.52 577.898L1281.93 575.204L1283.1 572.414L1283.38 570.967L1285.26 569.068L1286.27 571.548L1286.22 574.733L1287.27 575.347L1287.21 577.482L1288.52 580.069L1288.48 582.952L1288.07 584.803ZM1373.94 568.128L1374.99 569.87L1371.84 569.837L1370.49 566.719L1373.05 567.945L1373.94 568.128ZM1186.96 566.896L1185.05 566.992L1179.35 563.445L1183.64 562.45L1185.89 563.991L1187.35 565.529L1186.96 566.896ZM1368.56 565.039L1366.79 565.152L1364.07 564.639L1363.21 563.86L1363.7 561.851L1366.61 562.647L1367.97 563.709L1368.56 565.039ZM1372.46 563.657L1371.67 564.59L1368.78 560.205L1368.13 557.185H1369.66L1370.9 561.229L1372.46 563.657ZM1203.82 566.391L1199.85 567.506L1199.37 566.898L1199.92 565.176L1202.12 562.089L1206.75 560.08L1207.37 558.887L1211.35 557.751L1214.52 557.58L1215.98 556.949L1217.65 557.576L1215.88 558.945L1210.99 561.158L1207.09 562.611L1203.82 566.391ZM1175.05 556.052L1176.59 557.399L1179.42 556.986L1180.39 559.135L1175.08 560.15L1171.9 560.829L1169.47 560.789L1171.23 557.878L1173.72 557.838L1175.05 556.052ZM1197.7 556.045L1196.83 558.852L1189.93 560.287L1183.96 559.664L1184.08 557.816L1187.74 556.766L1190.47 558.28L1193.51 557.896L1197.7 556.045ZM1364.93 557.273L1365.02 558.288L1361.67 556.146L1359.35 554.331L1357.8 552.65L1358.51 552.136L1360.49 553.347L1364.01 555.67L1364.93 557.273ZM1354.78 552.277L1353.85 552.564L1351.96 551.414L1350.26 549.341L1350.55 548.501L1353.1 550.631L1354.78 552.277ZM1133.43 549.4L1142.08 549.903L1143.19 547.825L1151.47 550.25L1152.93 553.52L1159.67 554.44L1165.03 557.442L1159.73 559.367L1154.89 557.331L1150.79 557.469L1146.12 557.095L1141.94 556.188L1136.81 554.259L1133.51 553.759L1131.6 554.391L1123.45 552.312L1122.78 550.143L1118.66 549.772L1121.99 544.956L1127.47 545.253L1131.04 547.223L1132.9 547.607L1133.43 549.4ZM1251.83 546.561L1249.29 549.993L1249.08 546.198L1249.99 544.387L1251.02 542.684L1251.98 544.158L1251.83 546.561ZM1347.47 549.614L1346.17 550.118L1344.34 548.181L1342.57 544.98L1341.82 541.143L1342.48 540.657L1342.88 542.155L1344.19 543.297L1346.18 546.491L1348.21 548.202L1347.47 549.614ZM1330.26 542.851L1327.86 543.265L1327.06 544.677L1324.5 545.902L1322.1 547.081L1319.7 547.075L1316.07 545.611L1313.57 544.206L1314.04 542.647L1318.06 543.383L1320.56 542.989L1321.37 540.574L1322.03 540.45L1322.33 543.123L1324.93 542.739L1326.31 541.015L1328.93 539.22L1328.57 536.254L1331.29 536.158L1332.17 536.985L1331.94 539.777L1330.26 542.851ZM1218.55 532.688L1216.8 534.358L1213.7 533.434L1212.88 531.271L1217.47 531.03L1218.55 532.688ZM1233.22 530.851L1234.75 534.698L1230.99 532.624L1227.21 532.203L1224.64 532.536L1221.51 532.358L1222.66 529.593L1228.27 529.385L1233.22 530.851ZM1335.76 537.926L1334.28 539.267L1333.56 536.296L1332.59 534.352L1330.6 532.703L1328.09 530.558L1324.86 529.08L1326.15 527.865L1328.56 529.273L1330.07 530.379L1331.94 531.587L1333.67 533.699L1335.33 535.309L1335.76 537.926ZM1250.07 521.089L1251.19 529.219L1255.79 532.229L1259.73 526.895L1264.99 523.861L1269.02 523.857L1272.87 525.609L1276.2 527.408L1281.05 528.369L1288.82 531.834L1297.1 534.712L1300.12 537.29L1302.52 539.821L1303.06 542.788L1310.43 545.902L1311.36 548.575L1307.15 549.118L1307.91 552.479L1311.69 555.792L1314.16 561.151L1316.77 560.983L1316.37 563.224L1319.78 564.084L1318.32 565.039L1322.9 567.17L1322.24 568.634L1319.21 568.988L1318.24 567.674L1314.42 567.105L1309.94 566.343L1306.74 563.113L1304.44 560.332L1302.47 555.909L1296.74 553.701L1292.79 555.141L1289.89 556.809L1290.15 560.536L1286.44 562.275L1283.99 561.429L1279.33 561.218L1275.65 557.07L1271.13 556.054L1269.9 557.493L1264.16 557.648L1266.39 553.539L1269.34 552.137L1268.52 546.654L1266.57 542.424L1257.99 538.16L1254.26 537.739L1247.63 533.09L1246.2 535.535L1244.45 535.978L1243.48 534.133L1243.54 531.948L1240.14 529.477L1245.07 527.666L1248.31 527.764L1247.95 526.43L1241.31 526.42L1239.57 523.427L1235.53 522.499L1233.63 520.012L1239.76 518.795L1242.09 517.157L1249.37 519.221L1250.07 521.089ZM1209.66 508.164L1206.05 513.149L1202.64 514.116L1198.27 513.133L1190.71 513.384L1186.75 514.107L1186.1 517.911L1190.12 522.38L1192.6 520.104L1201.07 518.394L1200.68 520.708L1198.71 519.978L1196.71 522.923L1192.69 524.871L1196.84 531.315L1195.97 533.043L1199.84 538.851L1199.66 542.158L1197.17 543.639L1195.48 541.868L1197.84 537.746L1193.31 539.694L1192.24 538.301L1192.9 536.358L1189.72 533.408L1190.19 528.507L1187.13 530.036L1187.34 535.901L1187.24 543.103L1184.33 543.834L1182.45 542.356L1183.94 537.722L1183.39 532.866L1181.49 532.829L1180.17 529.384L1182.11 526.091L1182.81 522.1L1185.13 514.525L1186.08 512.453L1189.9 508.72L1193.46 510.204L1199.19 510.901L1204.4 510.691L1208.85 507.041L1209.66 508.164ZM1225.31 509.609L1225.1 514.001L1222.76 513.509L1222.07 516.567L1223.93 519.22L1222.66 519.823L1220.84 516.64L1219.47 510.215L1220.34 506.199L1221.81 504.37L1222.18 507.115L1224.87 507.556L1225.31 509.609ZM1120.94 544.736L1115.92 544.842L1112.26 540.631L1106.58 536.518L1104.72 533.468L1101.38 529.373L1099.19 525.604L1095.8 518.568L1091.83 514.379L1090.48 510.059L1088.76 506.135L1084.63 502.969L1082.17 498.667L1078.69 495.85L1073.8 490.304L1073.31 487.74L1076.24 487.943L1083.29 488.916L1087.46 493.839L1091.06 497.251L1093.61 499.343L1098 504.748L1102.61 504.827L1106.47 508.27L1109.12 512.479L1112.58 514.774L1110.76 518.878L1113.35 520.623L1114.98 520.752L1115.71 524.258L1117.25 527.063L1120.57 527.508L1122.71 530.69L1121.41 536.947L1120.94 544.736ZM1176.21 506.114L1181.35 510.766L1175.98 511.358L1174.48 514.785L1174.66 519.339L1170.27 522.776L1170.07 527.782L1168.12 535.474L1167.5 533.684L1162.28 535.948L1160.58 532.873L1157.35 532.588L1155.13 530.977L1149.69 532.786L1148.1 530.352L1145.12 530.628L1141.4 530.048L1140.82 523.305L1138.57 521.908L1136.42 517.609L1135.79 513.212L1136.29 508.556L1138.94 505.215L1142.29 506.938L1145.78 505.999L1146.62 501.742L1148.54 500.794L1153.95 499.705L1157.09 495.726L1159.21 492.543L1160.94 490.66L1164.68 487.902L1168.01 484.398L1170.09 480.457L1171.92 480.441L1174.39 482.992L1174.7 485.182L1177.75 486.587L1181.6 488.103L1181.37 490.075L1178.33 490.325L1179.24 492.783L1175.96 494.498L1173.52 499.041L1176.96 503.801L1176.21 506.114ZM1213.3 472.936L1214 476.291L1214.45 479.122L1213.18 483.737L1211.22 478.596L1209.26 481.155L1210.91 484.869L1209.73 487.23L1204.25 484.306L1202.77 480.657L1204.01 478.258L1200.99 475.871L1199.7 477.964L1197.56 477.77L1194.38 480.585L1193.54 479.108L1195.04 474.854L1197.79 473.433L1200.12 471.529L1201.89 473.817L1205.23 472.433L1205.8 470.178L1208.99 470.043L1208.4 466.131L1212.26 468.531L1212.84 471.077L1213.3 472.936ZM1009.4 484.126L1005.5 485.279L1003.2 481.271L1002.1 474.016L1003.74 465.808L1007.01 468.62L1009.3 472.18L1011.73 477.439L1011.25 482.691L1009.4 484.126ZM365.992 464.36L362.194 464.917L361.4 464.461L362.772 463.068L362.771 461.066L365.399 460.407L366.34 460.585L365.992 464.36ZM1201.71 463.505L1200.23 465.17L1199.08 468.368L1197.77 469.865L1194.71 466.368L1195.53 465.013L1196.54 463.594L1196.76 460.448L1199.22 460.15L1198.8 463.563L1201.69 458.669L1201.71 463.505ZM1177.35 468.377L1171.67 473.174L1173.64 469.639L1176.67 466.514L1179.09 463.011L1181.01 457.974L1182.19 462.109L1179.44 464.899L1177.35 468.377ZM1191.46 455.323L1194.32 456.895L1197.2 456.887L1197.31 459.008L1195.42 461.161L1192.69 462.683L1192.32 460.328L1192.4 457.739L1191.46 455.323ZM1207.65 453.946L1209.49 459.615L1205.87 458.269L1206.13 459.972L1207.53 463.1L1205.48 464.235L1204.97 460.671L1203.58 460.408L1202.58 457.336L1205.28 457.741L1205.02 455.818L1201.86 451.937L1206.2 452.049L1207.65 453.946ZM1189.22 449.333L1188.49 453.728L1186.3 451.191L1183.57 447.312L1187.45 447.499L1189.22 449.333ZM1184.56 421.492L1187.55 422.964L1188.72 421.621L1189.34 422.931L1188.94 425.067L1191.02 428.754L1190.45 433.02L1188.03 434.719L1187.87 438.846L1189.38 442.915L1191.84 443.478L1193.76 442.874L1199.72 445.702L1199.62 448.476L1201.22 449.7L1201.01 452.045L1197.23 449.547L1195.26 446.871L1194.31 448.741L1191.09 445.69L1187.09 446.444L1184.72 445.317L1184.69 443.208L1185.94 441.91L1184.45 440.728L1184.1 442.569L1181.52 439.633L1180.56 437.406L1179.74 432.501L1181.78 434.188L1181.1 426.154L1181.85 421.486L1184.56 421.492ZM347.636 422.915L346.38 424.214L343.01 424.184L340.377 424.365L340.305 422.16L341.005 421.406L344.666 421.436L346.915 421.891L347.636 422.915ZM296.793 424.769L295.348 425.629L292.92 424.803L290.544 422.926L291.201 421.747L293.119 421.388L294.121 421.561L297.088 422.024L299.345 423.262L299.952 424.673L296.793 424.769ZM317.161 414.423L320.955 415.236L321.602 414.354L325.087 414.378L327.602 415.71L328.793 415.58L329.429 417.416L331.885 417.312L331.597 418.853L333.57 419.039L335.598 420.934L333.749 423.033L331.718 421.912L329.643 422.128L328.193 421.882L327.3 422.823L325.552 423.141L324.984 421.89L323.436 422.63L321.326 426.157L320.245 425.339L320.151 423.858L317.256 422.982L315.109 423.34L312.411 422.967L310.225 423.93L307.978 422.325L308.534 420.662L312.585 421.378L315.924 421.792L317.644 420.643L315.816 418.406L316.045 416.431L313.307 415.624L314.459 414.194L317.161 414.423ZM1135.27 420.592L1131.75 423.071L1127.85 421.473L1127.08 417.03L1128.93 414.685L1133.59 413.233L1136.17 413.356L1137.48 415.332L1135.86 417.609L1135.27 420.592ZM287.256 399.364L288.781 401.278L293.009 400.688L294.432 401.915L297.811 405.144L300.311 407.492L301.787 407.421L304.325 408.481L303.837 409.944L307.102 410.158L310.246 412.282L309.588 413.496L306.549 414.154L303.515 414.411L300.481 414.002L294.03 414.506L297.342 411.614L295.674 410.266L292.838 409.919L291.47 408.419L290.766 405.456L288.224 405.658L284.242 404.261L283.043 403.168L277.346 402.359L275.926 401.341L277.764 400.035L273.439 399.768L269.884 402.482L268.03 402.555L267.225 403.827L264.947 404.397L263.107 403.903L265.67 402.292L266.887 400.408L269.054 399.245L271.462 398.225L274.894 397.724L276.048 397.149L279.834 397.523L283.315 397.582L287.256 399.364ZM297.458 394.155L296.336 394.416L295.613 391.39L294.163 389.867L295.593 386.522L296.893 386.735L297.841 391.107L297.458 394.155ZM1179.97 399.231L1178.89 403.514L1175.7 399.105L1174.42 395.223L1175.96 390.063L1178.64 386.073L1181.01 387.644L1180.92 390.821L1179.97 399.231ZM298.283 379.275L293.349 380.123L293.337 378.16L295.473 377.735L298.357 377.895L298.283 379.275ZM301.906 379.222L300.597 382.988L299.882 382.31L300.36 379.54L298.699 377.442L298.782 376.832L301.906 379.222ZM1222.81 338.417L1224 340.301L1222.68 343.618L1220.32 341.861L1218.52 343.134L1218.41 346.332L1215.08 344.776L1214.27 342.18L1215.57 338.906L1218.24 339.541L1219.23 337.23L1222.81 338.417ZM789.958 330.01L787.268 332.368L787.674 333.404L787.848 333.848L783.626 336.09L781.455 335.374L780.261 333.157L782.289 332.953L782.59 332.923L783.096 331.588L786.2 331.663L789.958 330.01ZM743.218 329.824L745.687 331.692L749.014 331.376L752.24 331.769L752.202 332.732L754.501 332.068L754.076 333.699L747.905 334.169L747.889 333.257L742.57 332.179L743.218 329.824ZM707.467 315.71L706.127 320.13L706.841 321.864L706.065 324.736L702.706 322.634L700.508 322.03L694.442 319.183L694.935 316.299L699.938 316.814L704.257 316.201L707.467 315.71ZM680.132 298.785L682.781 302.848L682.411 310.368L680.473 310.011L678.794 311.9L677.149 310.399L676.803 303.543L675.756 300.275L678.079 300.562L680.132 298.785ZM1243.92 321.82L1244.04 326.274L1245.86 329.059L1245.08 332.964L1240.52 335.562L1233.06 335.9L1229.08 342.174L1225.46 340.066L1223.86 335.954L1216.78 337.169L1212.54 339.759L1207.52 339.865L1213.23 343.898L1213.23 353.156L1211.1 355.435L1208.36 353.33L1207.93 348.431L1204.69 346.846L1201.74 343.098L1205.29 341.41L1206.42 337.957L1209.8 335.109L1211.64 331.33L1219.61 329.677L1224.61 330.81L1225.39 320.909L1229.27 323.579L1233.35 317.979L1234.89 315.795L1234.69 308.887L1231.21 302.487L1231.39 298.871L1235.38 297.818L1241.21 305.746L1243.07 310.348L1241.51 316.031L1243.92 321.82ZM681.436 293.362L680.186 297.81L678.246 296.64L677.166 292.762L677.948 290.613L680.568 288.399L681.436 293.362ZM1238.23 281.613L1241.78 282.86L1243.45 280.379L1247.68 286.934L1242.27 288.524L1241.36 294.27L1232.92 290.319L1233.57 296.634L1228.94 296.72L1225.73 290.985L1225.69 286.52L1229.98 286.196L1227.2 278.105L1226.07 273.511L1234.06 279.642L1238.23 281.613ZM380.615 267.587L383.397 268.385L387.236 268.223L384.654 270.657L383.042 271.044L378.43 268.523L377.888 266.529L379.881 264.687L380.615 267.587ZM391.93 252.221L389.937 252.329L385.198 250.423L382.215 247.541L383.742 247.027L388.623 248.559L392.092 251.105L391.93 252.221ZM141.08 255.827L138.629 256.667L133.348 253.92L133.23 251.765L130.721 249.635L130.905 247.896L127.352 246.796L127.599 243.459L128.718 242.035L132.188 243.376L134.145 244.308L137.566 244.958L137.824 247.071L138.317 249.968L141.072 252.479L141.08 255.827ZM417.074 242.55L413.155 247.912L416.26 245.846L418.65 247.157L416.751 249.287L419.947 250.956L422.137 249.472L425.742 251.345L423.534 255.786L426.588 254.751L426.43 257.957L426.923 261.696L424.142 266.958L422.246 267.18L419.784 266.054L421.684 261.157L420.71 260.394L414.883 265.589L412.488 265.382L415.969 262.571L412.373 261.113L407.919 261.472L400.056 261.289L399.842 259.509L402.864 257.388L401.484 255.747L405.742 252.096L412.226 242.357L415.556 238.846L419.526 236.712L421.304 236.984L420.131 238.663L417.074 242.55ZM123.41 221.624L127.469 221.117L121.947 228.276L122.418 233.304L120.848 233.291L120.145 230.436L120.414 227.551L119.621 225.593L120.601 222.819L122.089 220.8L123.41 221.624ZM1215.25 242.177L1225.75 253.002L1218.61 250.996L1221.09 259.737L1228.45 265.877L1230.57 270.037L1225.54 266.45L1225.3 271.053L1221.89 266.061L1219.17 260.227L1215.05 253.713L1213.33 249.116L1208.62 240.915L1202.55 234.828L1197.48 226.282L1199.2 223.381L1195.7 220.448L1196.84 219.557L1200.64 223.745L1205.96 229.804L1209.75 235.939L1215.25 242.177ZM614.563 232.807L607.415 236.481L601.836 235.543L605.317 229.028L603.545 222.627L609.057 217.658L612.101 214.677L615.354 214.413L619.394 218.357L617.184 222.715L617.703 227.217L614.563 232.807ZM690.332 211.611L688.321 216.794L684.069 213.184L683.387 210.519L688.905 208.383L690.332 211.611ZM58.9646 201.871L53.2223 204.35L52.5844 202.672L54.4186 199.618L59.7227 197.291L62.5446 196.291L64.6984 196.734L64.6881 198.768L58.9646 201.871ZM630.125 191.903L625.959 199.017L629.837 198.12L633.986 198.155L632.938 203.471L629.418 209.271L633.388 209.682L637.074 217.91L639.732 218.931L642.133 226.137L643.257 228.618L648.034 229.812L647.582 233.804L645.574 235.628L647.178 238.834L643.605 242.065L638.262 242.008L631.444 243.699L629.593 242.489L626.907 245.366L623.213 244.671L620.348 247.01L618.243 245.787L624.242 239.325L627.827 237.989L621.607 236.952L620.54 234.48L624.716 232.55L622.623 229.182L623.457 225.066L629.281 225.637L629.907 221.972L627.301 217.973L622.608 216.852L621.725 215.125L623.198 212.263L621.973 210.493L619.817 213.528L619.763 207.327L617.929 204.023L619.516 197.276L622.596 191.936L625.582 192.459L630.125 191.903ZM27.391 183.421L24.157 184.462L22.8797 183.211L22.3333 181.389L27.0603 180.239L29.4202 180.848L27.391 183.421ZM354.409 168.193L351.302 171.784L349.964 171.205L349.975 169.166L350.37 168.694L352.75 166.636L354.156 166.787L354.409 168.193ZM346.743 164.399L340.642 168.189L338.165 168.031L338.305 166.175L342.587 162.997L347.484 163.062L346.743 164.399ZM31.3852 156.971L32.1615 158.297L35.1414 157.581L36.0801 159.416L38.6561 160.343L37.577 161.098L33.3458 162.563L32.186 161.058L32.147 159.8L28.5729 160.203L28.3713 159.592L31.3852 156.971ZM346.159 143.766L345.049 146.888L347.441 145.795L348.442 147.652L350.964 150.073L353.832 152.265L352.419 155.596L355.305 155.051L356.668 157.365L352.41 159.554L347.714 157.882L347.356 154.741L341.889 158.453L334.928 162.041L335.85 157.983L330.665 158.651L335.627 155.203L339.126 149.677L343.986 143.186L346.159 143.766ZM591.665 138.057L590.412 142.687L593.885 147.531L588.828 152.904L578.118 157.694L574.905 158.963L570.339 157.939L560.726 155.731L564.643 152.637L557.502 149.196L563.901 147.826L564.055 145.747L557.017 144.094L560.099 139.444L565.47 138.383L570.144 143.233L575.905 139.343L579.986 141.366L586.033 137.547L591.665 138.057ZM383.926 133.06L379.926 133.423L381.009 129.872L384.694 125.78L388.316 124.764L389.817 126.792L388.177 129.916L387.264 130.918L383.926 133.06ZM42.4881 137.133L42.6675 138.92L48.1633 133.687L56.1002 134.764L54.9694 141.485L48.004 144.59L41.4729 145.326L33.6454 152.225L30.6248 153.685L27.5495 153.475L27.5958 151.027L25.2616 148.972L28.0171 145.902L25.8417 144.741L20.8055 145.662L21.8674 143.174L25.8021 140.521L19.6222 142.218L17.1871 145.566L11.669 148.57L47.7522 119.781L48.4988 125.403L48.2237 132.647L42.4881 137.133ZM326.714 118.715L322.812 121.307L319.976 119.068L316.701 119.877L314.69 116.545L319.308 114.236L324.04 110.992L325.874 113.115L326.828 114.46L326.768 115.875L326.714 118.715ZM1215.68 105.803L1212.73 106.189L1208.72 103.783L1208.13 100.609L1215.68 105.803ZM71.9565 105.343L67.1328 105.803L74.6798 100.609L75.5541 100.289L78.197 100.305L79.5939 102.485L77.8311 103.525L71.9565 105.343ZM345.472 115.818L340.352 123.384L348.628 117.595L349.436 122.353L344.96 127.792L345.17 132.699L351.929 127.441L358.328 121.105L363.77 112.95L368.014 113.523L372.125 114.621L374.23 118.311L372.213 121.981L367.403 125.898L367.485 129.805L365.033 133.335L355.485 138.374L350.075 139.481L347.784 137.321L344.657 140.92L337.862 146.92L335.088 150.01L328.331 154.76L323.002 155.225L318.531 158.171L315.773 162.677L311.115 163.542L303.606 169.11L295.468 176.769L291.202 182.079L286.969 189.824L291.915 190.929L290.571 197.1L289.976 202.058L295.904 200.77L301.685 203.59L304.405 206.054L305.816 209.108L309.88 210.879L312.84 213.582L319.073 213.952L323.033 214.57L320.233 220.088L319.028 226.438L319.308 233.444L323.142 239.334L326.897 237.321L331.264 230.922L332.805 220.981L331.314 217.637L338.654 214.646L344.729 210.148L348.575 205.649L349.951 201.305L349.599 195.745L347.086 190.78L354.455 183.804L355.499 177.721L359.12 167.089L362.373 165.503L367.704 167.372L371.124 168.039L374.919 166.236L377.268 168.56L380.059 172.518L380.073 175.155L386.397 175.667L384.046 181.334L382.058 189.769L385.096 190.804L386.411 194.692L393.161 191.028L399.364 183.684L402.944 180.565L403.702 186.542L405.716 194.988L407.389 202.836L404.587 206.91L408.594 210.547L410.991 214.213L416.697 215.866L418.629 217.9L418.734 223.266L421.562 224.105L422.527 226.48L421.053 233.513L417.601 235.852L414.212 238.028L407.103 240.225L400.802 245.277L393.771 246.272L385.534 244.982L379.533 244.938L375.265 245.363L370.689 249.748L364.805 252.443L356.763 260.439L350.572 265.967L354.307 264.985L362.967 257.094L372.818 252.05L379.017 251.444L381.817 254.42L376.949 258.477L376.617 264.943L376.86 269.439L381.498 272.401L388.491 271.544L394.128 264.855L393.429 269.177L395.602 271.327L389.654 275.201L379.725 278.703L375.084 281.078L369.497 285.285L366.435 284.857L367.417 279.908L375.727 275.043L369.08 275.237L364.323 275.955L364.573 277.884L359.473 280.727L354.727 282.747L349.924 284.476L346.62 288.282L345.871 289.238L345.103 292.308L345.776 295.365L347.484 295.509L347.526 293.405L348.489 294.686L347.779 296.332L344.733 297.263L342.742 297.152L339.404 298.153L337.51 298.441L334.999 298.724L331.105 300.384L337.536 299.304L338.534 300.389L332.244 302.105L329.556 302.117L329.844 301.416L328.192 303L329.373 303.261L327.526 307.351L323.462 311.714L323.472 310.26L322.607 309.965L321.54 308.548L321.731 311.597L322.509 312.608L322.152 314.736L320.309 316.923L316.94 321.402L316.599 321.179L318.744 317.364L317.043 315.214L317.604 310.523L316.23 312.967L316.338 316.542L313.84 315.7L316.251 317.47L315.28 322.802L316.425 323.189L316.463 325.119L315.923 330.68L312.365 334.785L307.58 336.419L304.103 339.647L301.875 339.999L299.288 342.014L298.31 343.851L292.863 347.397L289.917 349.989L287.256 353.209L285.87 357.055L285.964 360.803L286.618 365.402L287.925 369.195L287.569 371.504L288.667 377.681L287.981 381.259L287.48 383.317L285.903 386.543L284.484 387.209L282.4 386.57L282.046 384.252L280.551 383.036L278.92 378.478L277.529 374.41L277.214 372.325L278.716 368.778L277.999 365.832L275.393 361.335L273.839 360.509L268.976 362.952L268.242 362.684L266.59 360.172L264.105 358.838L259.038 359.515L255.278 358.92L251.874 359.291L249.87 360.044L250.408 361.564L249.914 363.745L250.641 364.807L249.672 365.512L248.197 364.721L246.358 365.738L243.211 365.571L240.498 362.732L236.547 363.403L233.615 362.158L230.817 362.536L226.878 363.791L222.088 367.768L217.268 370.076L214.366 372.625L212.889 375.022L212.148 378.69L211.896 381.236L212.406 383.039L212.411 383.047L212.395 383.058L209.868 387.673L208.442 391.463L206.961 398.489L206.13 401.042L206.463 403.889L207.463 406.429L207.77 410.461L210.198 414.323L210.848 417.275L212.27 419.819L216.851 421.189L218.438 423.347L222.54 421.905L226.017 421.384L229.481 420.456L232.405 419.571L235.508 417.463L236.951 414.444L237.882 410.087L238.856 408.568L242.058 407.207L246.933 405.999L250.854 406.18L253.615 405.74L254.538 406.844L254.062 409.348L251.273 412.433L249.823 415.588L250.538 416.489L249.603 418.724L248.017 422.751L247.033 421.426L246.086 421.512L246.016 422.269L246.862 422.293L246.629 423.695L245.658 425.922L245.963 426.718L245.296 428.558L245.527 429.049L244.738 431.643L243.718 433.005L242.89 433.168L241.823 434.943L243.197 435.869L243.66 435.106L244.914 435.761L245.361 435.96L246.434 435.06L247.727 434.986L248.104 435.404L248.826 435.15L250.868 435.612L252.958 435.478L254.458 434.912L255.04 434.338L256.446 434.603L257.488 434.952L258.675 434.831L259.61 434.387L261.595 435.097L262.298 435.211L263.581 436.167L264.775 437.315L266.34 438.099L267.4 439.505L266.971 439.996L266.643 441.137L266.945 443.006L265.766 444.744L265.118 446.796L264.798 449.04L264.941 450.352L264.887 452.642L264.162 453.142L263.587 455.316L263.806 456.657L262.796 457.955L262.916 459.326L263.555 460.159L264.53 462.914L266.157 464.952L268.159 467.113L269.686 468.928L269.537 469.999L271.331 470.227L271.779 469.815L272.96 471.058L275.204 470.693L277.192 469.416L279.991 468.396L281.613 466.883L284.094 467.18L283.9 467.677L286.412 467.851L288.38 468.725L289.782 470.246L291.419 471.643L293.749 471.804L297.311 468.273L299.199 467.735L299.328 466.061L300.389 461.781L303.113 459.428L305.964 459.331L306.384 458.274L309.893 458.697L313.595 456.134L315.421 454.998L317.754 452.55L319.333 452.861L320.436 454.198L319.458 455.909L319.261 457.109L316.577 457.702L317.922 460.004L317.726 462.655L315.584 465.597L317.106 469.612L319.071 469.283L320.257 465.626L318.943 463.844L318.916 460.006L324.653 457.944L324.163 455.551L325.839 453.948L327.255 457.517L330.416 457.599L333.2 460.429L333.292 462.107L337.347 462.152L342.199 461.631L344.679 463.9L348.107 464.526L350.715 462.943L350.826 461.667L356.436 461.362L361.853 461.291L357.948 462.788L359.387 465.179L362.986 465.56L366.313 468.049L366.881 472.099L369.243 471.985L370.974 473.176L373.883 475.034L376.582 478.323L376.635 480.921L378.338 481.041L380.702 483.5L382.448 485.255L387.854 486.264L388.362 485.356L392.034 484.992L396.877 486.346L398.404 486.901L401.717 488.092L406.44 492.342L407.159 494.403L408.707 494.166L409.791 496.948L412.25 505.743L414.671 506.572L414.776 510.041L411.354 514.179L412.765 515.694L420.787 516.483L420.963 521.52L424.399 518.223L430.113 520.029L437.661 523.098L439.893 526.044L439.169 528.827L444.433 527.278L453.282 529.937L460.057 529.741L466.799 533.904L472.652 539.541L476.163 540.994L480.042 541.196L481.705 542.784L483.337 549.201L484.141 552.253L482.503 560.604L480.278 563.907L474.092 570.957L471.388 576.697L468.197 581.106L467.073 581.206L465.951 584.955L466.652 594.528L465.756 602.436L465.443 605.828L464.128 607.861L463.7 614.766L459.563 621.535L459.139 626.912L455.684 629.172L454.855 632.306L450.027 632.294L443.186 634.306L440.237 636.639L435.391 638.173L430.523 642.363L427.24 647.6L426.961 651.557L427.97 654.49L427.672 659.875L426.939 662.485L424.181 665.435L420.378 674.919L417.056 679.221L414.412 681.764L413.094 686.957L410.644 690.09L409.245 693.545L404.808 696.61L401.468 695.507L399.222 696.098L394.889 693.731L391.99 693.907L388.909 690.865L389.041 693.736L395.224 698.465L395.223 702.287L398.279 704.711L398.49 707.434L395.562 714.624L389.775 717.647L381.468 718.823L376.7 718.254L378.22 721.629L378.164 725.884L379.502 728.762L377.373 730.775L373.222 731.566L368.749 729.481L367.433 730.979L369.22 736.692L372.416 738.43L374.324 736.609L376.201 739.61L372.741 741.409L370.19 745.023L370.915 750.904L370.671 754.052L366.775 754.068L364.273 757.091L364.2 761.535L369.329 765.9L373.538 767.109L373.514 772.499L369.627 775.906L368.965 783.038L365.989 785.453L365.185 788.329L368.379 794.75L372.102 798.353L370.34 798.037L366.808 797.991L365.384 799.527L362.543 801.788L363.821 807.667L362.214 807.814L357.116 805.762L351.161 801.386L345.062 797.809L342.521 793.87L342.473 790.246L339.157 786.153L335.425 775.763L335.428 769.963L338.408 765.334L331.706 763.594L334.148 758.345L332.947 748.571L338.088 750.632L337.252 738.57L334.072 737.035L334.551 744.269L331.718 743.45L330.988 735.175L329.945 724.572L331.024 720.691L328.604 715.181L326.92 708.859L328.683 708.677L329.522 699.687L330.85 690.863L331.247 682.71L328.889 674.574L329.481 670.12L327.939 663.488L329.555 656.963L328.95 646.695L329.009 635.758L329.086 624.078L327.893 615.58L326.276 608.302L321.518 605.344L320.943 603.233L311.606 598.076L303.087 592.474L299.368 589.323L297.185 585.106L297.818 583.637L293.541 576.958L288.52 567.595L283.734 557.522L281.78 555.219L280.201 551.502L276.557 548.21L273.257 546.169L274.649 543.92L272.313 539.117L273.638 535.593L277.187 532.415L279.539 528.657L278.528 526.461L276.826 528.796L274.078 526.593L274.982 525.176L274.178 520.614L275.763 519.856L276.588 516.725L278.306 513.488L277.996 511.438L280.487 510.36L283.619 508.36L283.017 506.8L284.713 506.422L284.539 503.904L285.627 502.082L287.883 501.745L289.844 498.585L291.63 495.946L289.984 494.748L290.907 491.827L290.01 487.221L291.023 485.899L290.45 481.636L288.716 478.948L287.264 477.493L286.41 474.767L287.587 473.418L286.456 473.072L285.689 471.403L283.503 469.997L281.508 470.319L280.506 472.078L278.619 473.347L277.623 473.523L277.132 474.575L279.173 477.315L277.91 477.96L277.225 478.708L275.108 478.965L274.451 475.95L273.824 476.808L272.344 476.511L271.521 474.481L269.68 474.144L268.533 473.553L266.591 473.561L266.4 474.657L265.916 473.894L263.513 472.773L262.647 471.712L263.213 470.834L263.106 469.717L261.916 468.506L260.191 467.512L258.671 466.864L258.458 465.383L257.326 464.478L257.53 465.95L256.559 467.159L255.606 465.755L254.183 465.255L253.626 464.234L253.746 462.692L254.445 461.095L253.215 460.38L254.314 459.4L252.859 457.802L250.891 455.754L250.022 454.041L248.239 452.443L246.156 450.146L246.719 449.358L247.403 450.124L247.773 449.765L247.121 448.172L245.789 447.729L245.191 448.928L242.587 448.853L241.004 448.365L239.225 447.351L236.747 447.035L235.565 445.94L233.332 445.051L230.53 444.959L228.561 443.947L226.333 441.841L221.781 436.335L219.634 434.672L216.109 433.335L213.559 433.708L209.745 435.636L207.427 436.141L204.398 434.791L201.137 433.816L197.205 431.463L193.923 430.743L189.127 428.355L185.68 425.897L184.723 424.522L182.255 424.214L177.887 422.584L176.341 420.229L171.944 417.297L170.181 414.033L169.497 411.507L171.063 411L170.832 409.519L172.068 408.171L172.375 406.372L171.252 404.032L171.193 401.957L170.149 399.321L167.155 394.112L163.46 390.008L161.939 386.723L158.572 384.566L158.02 383.275L159.366 380.002L157.378 378.765L155.329 376.182L155.05 372.465L152.783 372.031L150.874 369.217L149.427 366.612L149.634 364.936L148.268 360.881L147.76 356.748L148.361 354.669L145.774 352.519L144.258 352.755L142.174 351.259L140.888 353.464L140.926 356.062L140.311 360.118L141.254 362.338L143.6 366.037L144.021 367.299L144.597 367.682L144.744 369.52L145.542 369.446L145.631 372.89L146.662 374.246L147.181 376.131L149.361 378.835L149.791 383.763L150.631 386.077L151.368 388.548L151.072 391.324L153.176 391.498L154.503 393.885L155.68 396.227L155.402 397.164L153.188 399.087L152.405 399.062L151.811 395.879L149.467 392.888L146.762 390.347L144.761 389.009L145.686 385.15L145.61 382.285L143.855 380.643L141.337 378.275L140.605 378.959L139.797 377.575L137.367 376.289L135.477 373.197L135.891 372.794L137.632 373.097L139.724 371.103L140.453 368.692L137.999 364.869L135.797 363.382L135.033 360.02L134.331 356.48L133.471 352.15L133.059 347.255L133.123 344.465L131.233 341.316L129.409 340.66L129.407 339.084L127.067 338.808L125.974 337.32L122.133 336.777L121.309 335.888L121.738 332.86L119.378 327.288L118.455 319.526L119.061 318.226L117.838 316.371L116.262 311.645L117.404 307.023L116.342 303.914L119.121 299.175L120.954 294.244L121.445 289.813L125.39 284.334L131.083 273.677L134.011 265.71L135.165 260.586L135.342 257.792L136.413 256.614L141.281 258.662L140.758 264.328L142.508 262.747L144.206 257.818L145.255 252.858L144.721 252.842L139.96 246.859L138.482 244.211L132.604 241.665L133.399 236.192L136.116 232.373L132.596 229.712L134.887 224.646L132.939 220.053L134.884 216.778L134.263 214.375L132.162 212.331L134.74 206.712L133.35 201.46L135.605 195.278L132.286 194.853L126.409 194.691L123.378 192.794L120.815 185.907L118.233 184.642L113.628 182.252L108.045 182.823L103.284 179.738L101.304 176.864L96.021 178.293L92.8894 182.964L90.4869 183.392L85.0394 184.787L79.9056 187.038L74.6065 188.451L77.3397 184.524L84.6073 177.936L90.3061 175.855L90.7794 174.155L82.828 177.927L76.4658 182.405L67.0881 187.158L67.135 190.383L59.6987 195.124L53.4085 197.872L48.0032 199.868L44.7461 202.755L36.1187 206.106L32.515 209.14L25.8617 211.889L23.602 211.395L18.5973 213.185L12.97 215.363L8.08452 217.496L0 219.313L0.224378 218.245L6.80799 215.266L12.1509 213.291L19.0502 209.778L24.3996 209.049L28.4046 206.401L36.8275 202.516L38.7345 201.212L43.418 198.905L48.182 193.927L53.3743 190.023L47.3536 192.029L47.1089 190.891L43.0371 193.294L43.4491 189.94L40.4009 192.314L41.8421 189.014L35.7999 191.665L33.5006 191.66L36.6327 187.712L39.4763 185.268L39.2252 182.887L33.2405 184.17L32.9972 181.023L31.9741 179.409L35.5682 175.583L35.53 172.689L40.7682 168.766L47.5062 164.934L52.3427 161.39L55.7481 160.884L57.0935 161.992L63.3323 158.647L65.3198 159.244L70.1989 157.085L72.7782 153.894L72.0994 152.632L77.5131 149.918L75.275 149.999L69.9483 151.532L67.2614 153.082L66.0991 151.535L60.2915 152.322L56.9332 150.637L58.5321 147.798L58.6818 143.675L66.8869 140.691L78.4939 137.188H81.3076L76.8515 140.77L84.4298 140.492L86.5645 136.045L85.4907 133.294L87.2774 129.667L87.7297 126.553L85.9291 124.238L92.5146 120.376L98.6656 120.137L106.96 116.76L112.248 113.13L120.04 109.566L124.263 108.706L134.578 105.353L136.869 105.86L146.879 101.812L149.652 103.41L147.727 106.829L150.94 105.365L155.775 105.819L153.484 107.557L156.866 108.838L161.032 108.085L165.042 110.462L170.449 111.168L171.845 112.142L177.511 110.924L179.939 113.176L182.34 114.22L186.512 116.016L187.968 119.585L190.715 120.266L196.75 117.176L203.089 114.851L207.012 115.762L215.204 112.483L222.39 110.615L221.513 113.719L225.666 111.971L229.925 108.433L231.342 109.235L230.278 115.945L239.47 110.88L234.506 116.547L239.667 115.327L242.943 113.149L246.475 113.579L248.589 116.709L253.853 119.428L257.303 120.684L260.947 120.208L262.267 123.944L254.551 127.578L259.347 129.142L269.112 128.284L272.982 127.006L273.168 131.373L279.67 127.689L278.686 124.584L282.831 122.067L287.134 121.727L290.363 120.989L291.666 122.75L291.978 126.735L296.153 126.151L299.668 129.444L305.722 128.286L310.5 128.462L313.355 123.907L317.233 122.622L320.627 125.114L315.872 132.012L321.978 126.204L324.535 126.4L331.168 119.001L330.942 114.417L329.384 111.394L336.007 103.053L344.074 97.5125L347.237 98.7416L347.846 102.111L345.94 110.634L340.456 114.31L345.472 115.818ZM293.882 88.2295L288.761 91.8692L297.875 89.5216L298.402 93.434L305.618 89.477L306.027 92.0196L301.694 99.5768L306.106 96.3992L311.213 88.4781L314.965 87.3368L316.824 88.5834L317.389 91.7157L312.725 99.2135L309.138 104.586L311.424 108.329L314.414 111.886L311.514 115.172L305.688 115.771L305.575 118.626L302.4 121.338L297.307 120.178L293.211 118.179L289.029 118.629L280.819 121.138L269.935 122.432L265.046 122.939L266.179 119.457L263.424 117.437L259.788 118.266L261.004 112.367L263.881 111.569L270.022 110.288L274.27 110.625L279.632 109.318L274.992 107.558L267.593 108.158L263.184 108.006L264.11 105.22L274.338 102.183L269.36 102.29L265.792 100.282L274.096 94.5338L279.335 91.4574L292.288 86.7232L293.882 88.2295ZM325.442 85.8995L318.07 91.0384L318.36 85.5866L320.422 84.4904L324.751 84.1767L325.442 85.8995ZM408.931 88.3757L407.783 90.5235L404.677 90.2972L401.489 90.1333L397.426 91.1764L396.859 90.7057L396.388 86.578L398.533 83.7595L400.352 83.2372L406.629 84.0832L408.931 88.3757ZM378.123 87.9491L376.944 92.7871L384.39 86.5226L394.414 83.306L393.869 91.3752L389.961 96.4267L397.6 94.1921L402.564 91.1189L406.863 95.0283L408.872 98.6875L407.256 102.019L414.139 100.295L414.627 105.138L420.687 108.123L421.872 111.154L421.362 118.133L413.565 121.579L419.038 126.376L423.602 127.981L425.445 134.653L430.596 135.132L427.389 140.176L417.841 148.436L414.831 145.41L412.436 138.544L407.58 139.442L405.271 143.535L407.089 147.66L410.447 150.906L411.112 152.773L410.599 159.681L407.393 164.652L403.605 162.783L396.966 157.228L399.504 163.205L401.581 167.361L401.229 169.752L392.506 167.017L386.465 163.02L383.611 159.647L385.733 157.685L382.084 154.096L378.568 150.69L377.646 152.729L366.898 153.847L365.119 151.437L370.068 146.239L376.676 146.113L384.287 145.206L384.381 142.666L387.366 139.099L395.337 132.076L396.066 128.861L396.084 126.359L392.898 122.799L387.595 120.29L390.775 118.418L390.004 113.791L387.392 113.366L386.385 110.817L383.297 113.027L376.811 113.988L366.058 112.318L360.688 110.118L356.246 108.984L355.444 106.334L361.237 102.876L356.763 102.842L361.522 95.0946L369.21 88.1671L374.818 84.977L384.199 82.8907L378.123 87.9491ZM340.938 82.5757L343.044 84.2286L349.274 83.235L348.092 85.5084L342.063 89.2485L343.915 92.5871L337.76 99.5072L330.242 102.46L327.707 101.824L327.909 98.9085L325.212 92.9736L327.447 90.4955L332.871 91.4579L333.973 86.3685L340.938 82.5757ZM1077.65 87.5204L1073.11 87.5749L1065.82 86.705L1064.78 86.2917L1063.78 83.1952L1066.61 82.468L1074.69 85.4673L1077.65 87.5204ZM355.528 90.9454L347.635 96.7133L344.308 96.4269L347.905 89.6391L351.203 85.7632L355.616 82.43L360.417 80.2831L366.382 80.5583L370.501 82.4747L360.382 89.4373L355.528 90.9454ZM261.273 101.492L249.208 105.278L250.842 101.949L247.721 97.9097L251.394 95.4068L260.658 88.9993L268.902 83.863L271.406 79.0359L282.796 77.7993L285.201 79.4423L292.306 79.8814L292.781 82.1653L292.59 85.4678L286.771 87.4386L273.713 92.8963L264.446 98.2827L261.273 101.492ZM1079.04 72.7439L1080.11 75.8941L1074.44 75.1825L1064.67 72.0327L1061.72 69.4354L1068.8 70.6477L1079.04 72.7439ZM368.875 73.5751L364.576 76.6615L360.833 76.0695L359.154 73.9931L363.999 70.3911L370.122 68.2253L370.069 71.0435L368.875 73.5751ZM1057.33 68.9062L1063.23 74.8509L1052.17 74.6304L1049.75 76.5095L1037.25 71.3225L1031.43 65.7883L1033.09 64.2692L1041.04 64.6248L1057.33 68.9062ZM368.216 59.5212L366.612 63.297L362.698 67.4498L355.784 73.4155L350.219 74.2338L348.296 72.9573L352.876 68.2774L347.572 68.8968L353.699 62.6467L356.459 62.9005L363.489 60.123L366.927 60.5943L368.216 59.5212ZM336.678 63.7426L334.712 66.6259L338.667 65.2733L341.267 65.6246L337.699 69.5745L332.102 73.3734L320.972 74.6119L310.019 78.0526L305.341 78.2324L307.689 75.6446L317.486 72.1166L303.346 73.0686L300.879 71.6387L313.745 63.7641L319.027 61.4888L323.798 64.2321L323.618 69.0143L327.986 69.6251L332.291 61.8882L338.162 58.9147L339.969 59.8618L336.678 63.7426ZM825.356 106.648L823.766 107.311L812.885 106.329L810.596 102.963L804.006 100.922L801.791 96.7879L804.254 95.1379L802.27 90.9242L805.19 84.2744L801.966 83.315L805.621 76.3824L802.941 72.7651L807.089 68.5299L813.417 63.335L821.792 61.8131L824.547 58.787L829.184 57.7228L833.37 60.9514L833.231 63.4831L825.819 67.4956L819.382 71.3288L814.545 78.9069L814.052 86.5791L812.869 94.0448L816.448 100.419L825.356 106.648ZM381.818 56.4246L382.319 59.0609L387.787 59.0428L387.704 61.7272L384.297 64.7777L385.921 66.6077L386.063 68.5236L389.624 68.8775L393.245 69.5511L399.244 67.8064L405.613 67.12L409.794 67.6873L410.508 70.7198L408.648 74.0289L405.238 76.1454L399.569 77.8506L396.532 76.8863L387.123 78.1075L380.946 78.2479L376.984 77.271L371.356 74.7095L374.205 70.3189L377.452 66.326L377.892 62.7878L373.043 61.7941L372.292 59.2672L376.694 55.9025L381.818 56.4246ZM328.36 51.9097L320.278 58.2369L314.768 61.0719L311.687 61.4701L302.332 64.9462L296.322 66.1856L294.598 64.4331L306.842 58.3389L319.138 53.0104L323.145 53.1252L328.36 51.9097ZM935.804 57.439L940.968 61.4788L941.343 59.494L949.573 59.6023L960.366 63.5753L966.045 66.6082L969.949 70.7918L969.297 73.1605L966.197 77.5792L966.334 79.9261L971.125 81.0309L977.538 83.0172L978.725 81.5287L985.337 86.5632L984.621 84.5302L988.159 83.2905L999.157 84.5867L1003.72 88.2399L1017.68 89.3979L1011.39 83.4304L1019.29 84.8028L1024.05 84.7608L1033.56 88.8738L1040.45 93.8333L1042.09 97.055L1052.41 103.066L1060.63 106.144L1055.14 98.1578L1063.93 101.595L1067.04 99.5433L1075.75 101.89L1075.66 99.7509L1082.03 100.821L1071.51 93.6971L1071.57 90.3442L1105.61 95.364L1113.93 99.916L1129.35 105.727L1140.43 104.293L1148.34 105.542L1154.95 108.663L1161.35 114.146L1167.96 116.268L1170.45 114.743L1175.99 114.547L1183.99 116.009L1189.14 115.185L1203.19 121.773L1204.3 119.411L1195.55 114.662L1192.64 111.34L1205.77 113.433L1211.92 112.986L1226.11 116.544L1235.06 119.78L1271.15 148.571L1271.16 148.609L1270.24 151.704L1265.09 151.189L1272.51 154.922L1281.02 160.658L1284.72 162.523L1288.24 165.375L1289.27 167.196L1280.94 165.7L1276.22 170.855L1273.8 171.65L1272.99 176.421L1271.68 180.561L1273.22 183.609L1263.51 178.964L1258.83 184.233L1254.84 181.745L1253.91 184.614L1248.11 183.697L1250.85 188.083L1251.93 194.487L1254.33 197.143L1259.88 198.611L1267.21 208.074L1263.84 208.313L1266.46 213.691L1270.22 216.442L1265.91 219.693L1269.91 226.906L1265.16 228.438L1268.46 234.783L1266.67 240.553L1262.31 236.29L1254.28 227.182L1241.77 213.08L1236.71 204.134L1236.83 200.248L1234.54 197.189L1239.2 195.721L1238.8 187.393L1239.05 180.515L1240.66 175.129L1234.27 165.501L1230.46 166.082L1233.73 171.72L1231.36 179.161L1220.67 170.822L1213.41 173.136L1214.16 184.436L1220.7 188.522L1213.79 190.255L1208.56 190.938L1204.88 186.133L1198.26 185.121L1196.31 188.393L1183.98 187.249L1173.24 189.219L1170.5 202.052L1166.04 217.243L1172.68 218.045L1177.16 222.021L1181.85 223.425L1182.31 220.263L1186.85 220.675L1197.01 227.616L1200.52 232.939L1201.24 239.141L1205.27 246.487L1209 256.209L1207.57 264.904L1208.35 269.027L1206.24 275.919L1203.93 282.695L1202.85 286.141L1198.85 289.55L1196.25 289.625L1192.36 286.803L1188.64 291.049L1188.83 292.972L1187.09 292.626L1186.11 294.581L1185.68 296.539L1187.55 300.66L1185.89 301.923L1185.55 302.931L1184.63 304.617L1182.19 305.553L1180.95 307.081L1181.77 309.538L1181.52 310.163L1183.55 311.084L1186.9 313.562L1193.05 320.195L1195.42 323.819L1197.72 330.229L1197.14 333.271L1193.6 334.332L1190.91 336.62L1187.18 337.091L1185.71 334.088L1185.12 329.937L1181.23 324.147L1184.08 323.207L1179.44 318.416L1176.98 317.347L1176.85 318.403L1175.77 318.868L1175.24 317.812L1173.95 317.297L1172.48 316.401L1172.74 313.922L1173.5 313.259L1172.74 312.227L1172.67 309.175L1172.04 308.247L1169.33 307.63L1166.76 306.105L1161.47 307.757L1159.33 310.407L1155.32 311.951L1156.62 309.328L1154.92 307.118L1156.83 303.291L1153.45 300.296L1150.55 302.314L1147.26 306.278L1145.98 309.944L1141.92 310.216L1140.68 312.854L1144.24 316.664L1148.04 317.587L1149.04 320.105L1152.97 321.74L1156.38 317.738L1160.93 319.923L1163.74 320.071L1165.44 323.002L1159.91 324.561L1158.91 327.567L1155.63 330.352L1154.65 334.225L1160.22 337.254L1163.56 342.657L1167.67 347.664L1171.83 351.842L1172.89 355.87L1170.55 357.346L1172.38 360.225L1175.4 361.896L1175.87 366.271L1175.83 370.514L1173.49 370.994L1171.67 376.761L1169.68 383.719L1166.93 390.015L1161.82 394.865L1156.49 399.272L1151.59 399.873L1149.3 402.193L1147.45 400.499L1145.4 403.092L1139.63 405.704L1135.05 406.501L1134.43 411.989L1132 412.293L1130.23 408.525L1130.95 406.513L1124.7 404.845L1122.73 405.693L1117.5 410.142L1114.52 415.042L1114.06 418.63L1118.23 424.069L1123.3 430.788L1127.77 433.957L1130.99 438.069L1134.08 447.517L1134.32 456.465L1130.84 459.807L1125.93 463.071L1122.55 467.292L1117.22 472.001L1115.37 468.758L1116.4 465.33L1112.84 462.452L1109 461.712L1106.96 459.07L1104.24 453.824L1099.98 451.489L1096.13 451.585L1096.43 447.585L1092.46 447.615L1092.61 453.212L1090.76 460.628L1089.61 465.104L1090.17 468.767L1093.12 468.926L1095.24 473.539L1096.29 477.91L1098.96 480.8L1101.73 481.385L1104.2 484.002L1105.26 484.473L1108.06 487.515L1110.09 490.886L1110.46 494.275L1110.04 496.565L1110.52 498.294L1110.92 501.271L1112.54 502.656L1114.4 507.101L1114.33 508.801L1111.11 509.137L1106.78 505.413L1101.34 501.422L1100.76 498.86L1098.05 495.496L1097.3 491.328L1095.57 488.583L1095.92 484.914L1094.83 482.778L1092.95 480.843L1092.06 478.345L1089.5 475.495L1087.18 473.099L1086.6 476.068L1085.59 473.262L1085.89 470.109L1086.91 465.256L1086.21 461.496L1087.31 457.61L1085.55 454.605L1085.44 449.063L1083.37 446.424L1081.31 440.316L1079.81 433.85L1077.39 429.601L1074.73 432.175L1070.01 435.829L1067.45 435.372L1064.54 434.171L1065.38 427.81L1063.88 422.99L1059.63 417.037L1059.94 415.171L1057.24 414.507L1053.51 410.277L1051.87 407.568L1051.24 404.916L1050.03 402.407L1047.73 399.366L1043.6 399.156L1044.32 401.311L1043.34 404.214L1041.29 403.157L1040.78 404.106L1039.44 403.537L1037.65 403.07L1037.28 404.973L1034.24 404.908L1028.89 405.99L1029.66 409.901L1027.66 412.971L1021.65 416.457L1017.32 422.533L1014.3 425.783L1010.17 429.149L1010.39 431.511L1008.27 432.775L1004.39 434.611L1002.32 434.882L1001.31 438.787L1002.78 445.428L1003.34 449.655L1001.77 454.487L1002.28 463.107L999.955 463.353L998.108 467.215L999.569 468.882L995.517 470.316L994.152 473.753L992.399 475.205L987.902 470.487L985.45 463.399L983.426 458.285L981.699 455.884L978.99 451.001L977.429 444.629L976.414 441.44L971.769 434.413L969.042 424.457L967.075 417.855L966.452 411.582L965.065 406.716L958.909 409.828L955.701 409.205L949.21 402.895L951.142 401.009L949.599 398.956L943.884 394.51L940.48 393.183L938.717 389.403L934.817 385.387L926.789 386.381L919.615 386.479L913.469 387.218L904.974 385.626L900.024 384.411L894.964 383.725L892.378 377.224L890.165 376.282L886.884 377.232L882.712 379.801L877.142 378.041L872.272 373.953L867.88 372.435L864.414 367.362L860.406 360.198L858.15 361.071L855.178 359.285L853.773 361.388L851.15 361.124L852.311 363.499L852.046 364.725L853.869 368.767L856.046 373.373L858.329 374.59L859.265 376.459L862.484 378.693L862.96 380.881L862.686 382.645L863.41 384.421L864.818 385.902L865.565 387.632L866.343 388.923L865.699 385.085L866.629 382.311L867.78 381.741L869.275 383.401L869.645 386.494L868.97 389.594L869.992 391.604L870.757 391.348L871.05 392.789L874.445 391.961L878.123 392.099L880.815 392.253L883.511 388.696L886.476 385.314L888.931 382.055L890.024 380.251L890.619 380.711L890.435 382.898L889.959 383.858L890.986 388.028L893.33 391.624L895.992 393.531L899.313 394.217L902.035 395.173L904.332 398.176L905.697 399.914L907.353 400.575L907.456 401.741L906.125 404.849L905.546 406.311L903.816 407.975L902.459 411.533L900.411 411.261L899.586 412.497L899.083 415.124L899.904 418.582L899.532 419.217L897.472 419.199L894.822 421.129L894.569 423.641L893.621 424.728L890.831 424.686L889.166 425.983L889.328 428.062L887.252 429.488L884.745 429.003L881.854 430.736L879.799 431.026L876.635 432.405L875.9 434.681L875.895 436.428L871.538 438.588L864.476 440.973L860.622 444.574L858.653 444.856L857.287 444.554L854.752 446.67L851.923 447.651L848.152 447.915L847.026 448.205L846.096 449.55L844.93 449.922L844.285 451.215L842.048 451.104L840.634 451.794L837.503 451.535L836.214 448.562L836.23 445.776L835.431 444.271L834.386 440.495L833 438.393L833.888 438.144L833.319 435.806L833.817 434.818L833.51 432.582L832.819 430.392L831.388 428.844L830.937 426.794L828.526 424.95L825.909 420.627L824.414 416.416L821.122 412.852L819.082 412L815.841 407.05L815.108 403.429L815.106 400.335L812.189 394.529L809.975 392.48L807.51 391.393L805.856 388.377L806.018 387.186L804.605 384.448L803.235 383.268L801.24 379.327L798.259 375.042L795.756 371.379L793.57 371.406L794.044 368.471L794.102 366.596L794.486 364.454L794.281 363.678L793.211 365.835L792.559 369.88L791.557 372.661L790.596 373.592L789.014 371.87L786.869 369.486L783.208 361.796L782.793 362.284L785 367.947L788.06 373.319L791.932 381.595L793.745 384.471L795.353 387.453L799.688 393.279L798.862 394.193L799.208 397.6L804.658 402.292L805.501 403.36L807.226 408.469L806.3 409.412L807.232 414.752L809.185 420.924L810.953 422.194L813.497 424.099L816.382 430.053L817.83 434.762L820.402 437.256L826.746 442.085L829.367 444.994L831.926 447.935L833.404 449.685L835.679 451.215L836.805 452.79L836.741 454.9L834.208 456.115L836.195 457.505L837.696 458.44L838.651 460.537L840.759 462.659L843.002 462.677L847.218 461.38L852.115 460.78L856.034 459.203L858.262 458.87L859.84 457.944L862.404 457.765L863.843 457.665L865.893 456.911L868.266 456.4L870.33 454.661L872.04 454.647L872.201 456.052L871.904 459.005L872.024 461.67L871.138 463.5L870.051 468.972L868.042 474.618L865.407 481.063L861.67 488.449L857.889 494.085L852.634 500.948L848.126 505.017L841.363 510.008L837.141 513.831L832.169 519.919L831.114 522.569L830.083 523.759L826.896 525.766L825.762 527.864L824.059 528.233L823.387 531.776L821.911 533.805L820.989 537.153L819.143 538.815L816.962 545.021L817.183 547.877L820.051 549.715L820.162 551.026L818.854 554.074L819.081 555.608L818.73 558.021L820.235 561.19L821.974 566.181L823.601 567.288L824.265 569.56L823.92 574.616L824.324 579.076L824.197 587.038L824.886 589.54L823.389 593.193L821.488 596.75L818.484 599.931L814.291 601.884L809.121 604.379L803.8 609.91L802.033 610.853L798.735 614.526L796.836 615.723L796.276 619.419L798.187 623.354L798.902 626.408L798.871 627.969L799.672 627.708L799.252 632.833L798.389 635.267L799.381 636.165L798.589 638.35L796.622 640.22L792.861 642L787.368 644.854L785.312 646.808L785.555 649.037L786.662 649.394L786.107 652.185L784.76 656.056L783.95 660.489L782.652 662.904L779.479 665.612L778.571 666.388L776.532 669.12L775.126 671.889L772.387 675.763L767.084 681.365L763.796 684.635L760.354 687.123L755.689 689.248L753.465 689.534L752.808 691.058L750.233 690.247L748.028 691.292L743.409 690.234L740.751 690.903L738.978 690.616L734.402 692.785L730.67 693.657L727.896 695.741L725.93 695.873L724.204 693.907L722.751 693.807L721.008 691.35L720.769 692.113L720.263 690.635L720.433 687.421L719.187 683.758L720.63 682.765L720.696 678.59L718.051 673.521L716.032 668.951L716.026 668.937L713.129 661.964L709.997 657.927L708.393 654.038L707.569 648.872L706.586 645.041L705.31 636.934L705.36 630.667L704.856 627.818L703.171 625.669L700.959 621.371L698.729 615.149L697.81 611.902L694.247 606.865L694.033 602.916L693.655 599.686L694.337 595.177L695.949 590.493L696.21 588.3L697.726 583.702L698.825 581.614L701.453 578.285L702.927 576.023L703.442 572.261L703.236 569.387L701.903 567.575L700.728 564.502L699.643 561.466L699.894 560.415L701.301 558.411L699.963 553.531L699.057 550.154L696.807 546.964L697.242 545.984L696.615 544.421L695.421 540.634L691.715 535.303L687.069 530.226L684.077 526.077L681.327 520.885L681.474 519.215L682.465 517.608L683.567 513.95L684.48 510.224L683.631 509.465L685.183 503.821L685.838 499.85L684.058 496.526L681.987 495.672L681.059 493.417L679.896 492.695L679.945 491.304L675.242 493.116L673.521 492.851L671.78 493.978L668.153 493.869L665.72 490.72L664.22 487.075L661.006 483.755L657.601 483.818L653.603 483.815L649.859 484.402L646.211 485.478L639.106 488.427L636.585 490.154L632.499 491.614L628.46 490.184L626.397 490.235L623.235 489.251L620.329 489.309L614.958 490.188L611.807 491.641L607.314 493.487L606.438 493.355L605.25 493.399L600.583 491L596.478 487.167L592.628 484.41L589.594 481.158L588.375 480.783L585.127 478.751L582.786 476.047L582.007 474.203L581.482 470.467L579.524 467.474L577.784 465.493L576.633 464.838L575.515 463.831L575.026 461.592L574.377 460.475L573.073 459.644L570.688 457.523L568.791 457.187L567.774 455.756L567.811 454.983L566.45 453.904L566.178 452.817L565.496 448.916L566.108 446.656L564.316 442.685L562.103 440.866L564.099 439.896L566.342 436.305L567.459 433.674L567.122 430.909L568.424 428.376L569.078 423.531L568.691 418.432L568.208 415.861L568.713 413.278L567.617 410.812L565.321 408.568L565.569 406.371L565.843 403.957L567.589 402.535L569.116 399.814L568.876 398.043L570.502 394.345L573.06 391.006L574.574 390.158L575.827 387.085L576.008 384.272L577.691 381.001L580.681 379.068L583.616 373.638L585.961 371.513L590.061 370.924L593.605 367.267L595.835 365.839L599.585 361.352L598.64 354.634L600.398 349.963L601.044 347.095L603.914 343.403L608.306 340.9L611.553 338.63L614.531 332.921L615.938 329.519L619.099 329.545L621.66 331.898L625.753 331.515L630.199 332.737L632.068 332.796L636.215 329.769L640.86 328.805L643.567 326.511L647.689 324.815L654.937 323.822L662.009 323.368L664.18 324.198L668.172 321.996L672.739 321.952L674.505 323.253L677.423 322.914L682.02 320.656L685.029 321.328L684.984 324.155L688.552 322.1L688.889 323.173L686.83 325.906L686.875 328.478L688.402 329.857L687.974 334.647L685.21 337.418L686.109 340.413L688.347 340.508L689.507 343.113L691.178 343.968L696.324 345.849L698.131 345.38L701.783 346.29L707.629 348.728L709.84 353.557L713.79 354.608L720.025 356.875L724.787 359.558L726.856 358.159L728.835 355.672L727.63 351.519L728.869 348.874L731.871 346.319L734.819 345.574L740.747 346.692L742.362 349.128L743.98 349.151L745.416 350.079L749.772 350.717L750.938 352.51L756.723 352.421L761.003 353.855L765.431 355.455L767.505 356.298L770.747 354.584L772.433 353.03L776.24 352.583L779.386 353.268L780.769 355.954L781.651 354.186L785.238 355.465L788.66 355.771L790.699 354.407L791.824 352.621L791.502 352.314L792.446 349.774L792.983 345.66L793.485 344.277L793.599 344.221L794.749 339.756L796.542 335.879L796.606 335.687L795.805 331.459L796.638 329.178L794.814 326.657L796.229 324.565L793.665 325.04L789.959 323.757L787.317 326.963L780.865 327.589L777.132 324.6L772.501 324.413L771.707 326.724L768.797 327.385L764.415 324.419L759.749 324.519L756.79 318.956L753.437 315.839L755.161 311.452L752.258 308.746L756.5 303.304L762.977 303.076L764.347 298.727L772.435 299.486L777.105 295.761L781.815 294.132L788.732 294.01L796.53 298.065L802.83 300.283L807.623 299.399L811.309 299.911L815.879 296.915L816.172 294.455L814.585 290.514L811.877 288.377L809.475 287.709L807.705 285.927L801.737 280.992L796.715 278.78L792.688 275.323L795.562 274.38L798.286 269.425L795.659 267.07L801.333 264.635L801.029 263.326L797.508 264.291L794.315 264.769L791.866 266.7L788.077 267.016L784.84 269.233L785.557 272.921L787.755 274.346L791.912 273.992L791.384 276.097L786.995 277.117L781.794 280.515L779.35 279.322L779.932 276.559L775.219 274.834L775.813 273.701L779.513 271.735L778.157 270.377L771.595 268.875L771.049 266.655L767.343 267.389L766.193 270.663L763.485 275.036L763.743 276.555L761.874 277.822L760.561 277.271L760.114 284.339L758.189 286.752L757.055 290.904L758.709 294.199L759.409 296.414L763.247 298.269L762.611 299.675L757.642 299.99L755.999 301.759L752.736 304.832L751.19 302.176L751.151 300.996L748.572 300.834L746.332 300.292L741.346 301.78L744.511 304.986L742.434 305.914L740.08 305.92L737.636 302.985L736.932 304.237L738.114 307.635L740.42 310.296L738.906 311.536L741.451 314.138L743.671 315.772L743.955 318.947L739.91 317.459L741.359 320.32L738.686 320.908L740.623 325.837L737.781 325.906L734.122 323.48L732.249 319.003L731.274 315.264L729.457 312.671L727.085 309.445L726.7 307.829L725.957 307.432L725.795 306.181L723.339 304.269L722.807 301.55L722.922 297.64L723.382 295.855L722.62 294.947L721.714 294.501L720.422 292.617L718.544 291.469L714.487 289.326L711.948 287.236L708.043 285.506L704.317 281.208L705.13 280.771L703.11 278.303L702.927 276.316L700.225 275.386L699.088 277.929L697.772 275.957L697.763 273.909L697.905 273.814L698.794 273.277L695.476 272.415L692.225 274.513L692.583 277.438L692.15 279.113L693.639 282.096L697.667 285.038L699.987 289.842L704.867 294.501L708.15 294.465L709.237 295.738L708.119 296.884L711.992 298.959L715.176 300.693L718.958 303.672L719.457 304.737L718.783 306.774L716.29 304.117L712.573 303.178L710.984 306.862L714.151 308.967L713.8 311.921L712.043 312.255L710.003 317.089L708.246 317.522L708.185 315.802L708.913 312.779L709.778 311.573L707.965 308.289L706.538 305.424L704.75 304.713L703.391 302.25L700.636 301.211L698.714 298.91L695.587 298.538L692.201 295.944L688.225 292.19L685.264 288.854L683.762 283.098L681.673 282.419L678.236 280.487L676.353 281.278L674.031 283.991L672.315 284.419L668.622 287.708L660.377 286.133L654.334 288.019L653.892 291.51L654.149 294.864L650.202 298.693L644.818 299.905L644.447 301.83L641.858 304.992L640.226 309.616L641.88 312.849L639.419 315.365L638.492 319.019L635.267 320.135L632.218 324.434L626.783 324.519L622.704 324.413L619.995 326.381L618.328 328.482L616.235 328.02L614.678 326.142L613.52 322.934L609.546 322.067L607.796 323.518L605.559 322.733L603.337 323.347L604.098 318.967L603.786 315.512L601.896 314.993L600.939 312.855L601.381 309.152L603.127 307.091L603.491 304.791L604.466 301.359L604.44 298.932L603.659 296.87L603.531 294.93L603.864 290.817L602.237 288.302L608.251 284.1L613.312 285.154L618.897 285.116L623.308 286.111L626.768 285.806L633.493 285.998L635.662 282.498L636.503 270.767L632.316 264.517L629.338 261.487L623.153 259.174L622.823 254.773L628.087 253.455L634.864 255.013L633.635 248.131L637.419 250.747L646.776 245.986L647.946 240.95L651.421 239.705L654.598 238.485L656.62 236.784L659.906 227.602L665.21 224.969L668.473 225.146L669.194 223.812L672.452 223.468L673.23 224.859L675.763 221.745L674.775 219.368L674.45 215.755L672.737 212.204L672.357 205.611L672.921 203.86L673.931 201.908L677.265 201.504L678.511 199.705L681.463 197.858L681.517 201.219L680.502 203.34L681.055 205.158L683.182 206.139L682.376 208.576L681.197 207.875L678.654 212.509L679.852 215.626L680.039 218.09L684.042 219.571L684.117 221.822L688.02 220.632L690.109 218.892L694.662 221.399L696.637 223.413L699.181 221.556L705.046 218.62L709.763 216.465L713.73 217.542L714.161 219.094L717.921 219.175L718.543 216.373L723.683 214.3L722.304 208.901L721.923 204.03L723.348 199.94L726.666 197.705L730.257 202.584L733.299 202.458L733.402 197.442L733.343 193.563L732.065 194.393L729.382 192.05L728.577 188.242L733.05 186.388L737.605 185.419L741.804 186.521L745.617 186.323L749.256 182.63L744.872 179.436L738.262 179.972L732.113 182.434L726.268 183.846L723.665 180.187L719.823 177.974L719.809 171.292L717.268 165.111L718.457 161.089L721.093 156.725L728.016 149.117L730.109 147.639L729.247 144.64L723.88 141.273L718.245 143.292L715.578 148.242L716.719 152.556L711.814 158.175L705.594 164.132L703.953 173.769L707.042 178.538L710.957 182.269L708.295 189.791L704.542 191.341L704.059 202.358L702.381 208.429L697.677 207.805L695.859 212.908L691.407 213.203L689.801 207.119L686.151 199.744L682.723 190.44L679.981 186.361L672.972 194.026L668.009 195.568L662.689 192.213L661.14 185.07L659.52 169.477L662.705 165.063L671.913 159.257L678.475 152.048L684.121 142.181L691.003 128.25L695.973 122.735L703.757 113.433L710.346 110.153L715.723 110.552L719.426 104.301L725.293 104.636L730.661 103.124L741.953 108.659L738.287 110.671L742.948 115.368L745.678 112.772L752.168 117.277L761.632 119.042L776.528 127.361L780.115 130.823L781.723 135.64L778.97 139.417L773.851 141.326L757.186 135.871L754.889 136.787L761.705 142.036L764.557 152.55L769.586 154.688L772.774 156.501L772.436 153.11L769.499 149.978L771.189 147.414L780.754 151.803L783.271 150.088L779.562 144.907L785.678 137.91L788.963 138.324L792.913 140.828L793.422 135.895L789.263 131.584L789.55 127.229L785.649 122.679L795.731 125.036L799.015 129.131L795.045 130.029L796.359 134.064L799.828 136.533L804.593 134.971L803.866 130.349L809.671 126.877L818.885 120.566L821.523 120.929L820.013 125.394L824.458 126.157L825.845 123.651L831.995 123.448L835.609 120.392L841.325 124.828L842.924 119.951L837.527 115.652L838.087 113.19L848.778 115.448L854.438 117.771L870.587 126.192L870.885 122.349L865.538 118.443L864.635 116.868L860.317 116.138L859.577 112.602L854.781 106.735L853.395 104.311L855.394 97.4049L853.336 90.3906L854.69 88.8629L864.048 90.912L867.346 95.2099L868.096 101.422L871.482 103.847L875.558 109.132L880.502 119.357L886.595 123.878L887.749 128.762L886.26 139.031L890.705 140.087L890.793 137.505L893.622 135.656L892.679 132.078L893.77 128.616L889.577 124.456L888.446 119.591L884.505 118.983L881.418 114.85L879.668 107.317L871.877 101.133L874.326 95.9703L870.124 90.4778L871.537 90.3006L875.913 94.5907L879.296 101.982L883.536 103.372L878.673 97.8682L881.947 94.8465L888.108 94.4392L896.81 98.8178L889.69 92.41L883.564 84.1115L887.629 82.5269L895.093 82.8743L900.784 81.844L895.12 77.7138L894.275 72.4844L897.424 72.2652L899.612 68.2828L906.195 67.2088L905.118 64.9941L911.831 64.2423L915.875 66.0603L918.004 61.7492L923.278 61.8843L920.429 58.3605L919.367 54.8647L922.052 51.4741L929.681 54.1523L928.204 56.1811L935.804 57.439ZM847.835 298.371L850.611 302.432L852.618 302.698L854.159 304.237L850.752 304.696L850.684 309.11L850.249 311.093L848.885 312.415L849.4 315.208L851.335 319.352L855.547 320.519L858.913 323.325L865.135 324.287L871.6 322.81L871.811 321.503L870.409 317.538L870.098 311.643L866.483 309.726L866.941 305.839L864.081 305.507L864.22 300.696L868.429 302.099L871.817 300.269L868.154 296.825L866.374 293.531L863.258 295.002L863.548 299.213L861.605 295.491L861.129 294.085L861.74 291.679L860.59 289.662L855.409 287.683L852.612 282.449L850.06 280.969L849.583 279.058L853.709 279.616L853.08 275.314L856.407 274.356L860.176 275.238L859.792 269.462L858.327 265.78L854.292 266.068L850.532 264.611L846.298 267.234L842.708 268.483L841.474 272.004L837.657 272.979L834.588 279.062L839.272 284.615L839.498 288.534L845.15 295.343L847.835 298.371ZM387.56 52.9461L386.091 53.1829L381.555 52.6558L383.226 50.34L388.493 50.4613L388.827 52.0004L387.56 52.9461ZM345.061 51.4812L337.213 53.8609L336.413 51.1896L341.817 48.5406L346.731 47.6914L348.901 48.9961L345.061 51.4812ZM707.557 50.1804L702.393 53.5662L697.186 51.6467L698.549 49.5058L696.332 46.843L701.376 45.1678L703.222 48.3033L707.557 50.1804ZM355.542 43.9351L350.342 45.5698L345.993 45.5616L347.535 44.3665L353.381 41.8499L354.283 42.2335L355.542 43.9351ZM386.769 48.4915L381.026 50.2074L380.905 48.2757L383.174 45.1413L386.829 41.6652L389.798 42.0016L390.694 42.5585L390.664 45.4744L386.769 48.4915ZM377.985 46.2571L375.218 49.7343L371.876 48.8075L370.554 46.1026L365.058 45.7923L370.498 43.3016L369.78 41.2741L373.539 38.0341L377.135 39.1879L380.479 42.267L377.985 46.2571ZM918.206 46.4064L906.854 49.6225L899.217 38.6069L900.173 37.654L902.741 38.2062L914.978 42.9997L918.206 46.4064ZM687.019 34.632L696.839 40.9555L691.077 44.2655L690.873 50.4058L688.819 51.9703L688.757 58.79L685.475 59.1087L678.804 54.0991L680.81 51.1611L676.442 48.7581L670.375 41.6873L667.561 35.0527L673.903 31.9938L675.748 34.9846L679.292 34.8659L679.696 31.9457L683.256 31.6477L687.019 34.632ZM703.125 28.5846L708.897 31.6002L706.677 36.1981L699.646 37.1992L691.851 35.7813L690.845 33.4318L687.246 33.2822L683.694 29.346L690.597 26.9383L694.657 29.0123L696.372 26.4285L703.125 28.5846ZM764.655 27.3777L762.128 28.5149L760.345 29.1682L760.855 30.5788L758.816 31.9962L754.985 29.9622L754.799 27.2729L749.29 27.0104L753.051 25.4352L756.611 25.3304L758.529 27.66L758.631 25.5905L759.965 24.1608L764.73 26.0602L764.655 27.3777ZM899.274 41.5892L894.81 42.6394L884.955 40.2074L877.191 36.9743L868.45 30.8507L863.192 29.1519L862.481 23.2423L865.117 21.2758L875.189 25.6512L890.978 33.9633L899.274 41.5892ZM423.57 34.9879L423.806 37.7347L417.777 40.2534L406.701 46.5706L401.437 47.171L397.056 46.1018L397.825 42.6832L401.149 39.6245L405.616 37.3682L400.915 37.4328L401.339 34.6041L404.291 30.7307L410.563 26.9023L415.435 24.2614L418.604 23.6537L420.031 21.659L426.005 21.2148L423.513 25.8548L425.447 27.7053L427.621 29.3365L423.57 34.9879ZM497.508 4.85542L502.427 5.55776L505.872 6.70398L507.568 9.12665L505.361 11.4998L496.541 15.3365L489.465 17.1183L485.616 19.0819L490.669 19.0367L480.532 24.3247L474.497 26.777L464.239 33.7937L457.866 35.2081L454.754 36.9432L446.285 37.8518L448.848 38.9145L445.757 40.4242L444.335 44.574L439.426 47.4412L433.338 49.7978L429.35 53.0404L423.5 55.5053L422.344 57.3648L427.301 57.0473L425.758 59.0474L414.389 63.9337L408.892 61.6911L399.59 62.9522L396.276 61.9682L391.37 61.5416L394.603 57.6209L401.386 55.7632L405.633 49.797L407.817 49.2133L411.677 52.7913L412.955 47.4658L410.219 45.8636L415.516 42.6186L422.066 40.6114L425.702 37.6623L425.524 34.3379L429.125 29.9261L435.416 30.2963L436.396 31.2264L443.403 28.0926L439.008 27.0952L429.982 27.6454L429.043 24.7091L431.183 21.1921L431.574 18.6291L434.801 15.6314L440.255 13.949L443.218 13.6617L449.345 12.2272L456.653 8.91574L458.763 9.38136L458.137 11.8692L465.55 7.06168L470.095 5.62955L475.067 4.63787L481.908 4.26521L481.911 5.23473L489.668 3.71537L493.567 4.28567L497.508 4.85542ZM586.025 1.1343L596.565 8.25221L591.472 11.6772L582.907 12.0673L570.643 12.9321L571.068 14.5093L579.377 13.5356L585.04 16.5759L590.297 13.8768L591.192 17.0373L587.123 22.1274L593.974 18.8786L605.871 15.4713L612.33 17.1747L612.997 20.9168L602.214 27.0948L600.437 29.0784L592.298 30.565L597.882 30.9766L593.6 37.1993L590.319 42.6807L588.394 51.9651L590.585 57.346L586.217 57.6848L581.113 60.2731L585.388 64.5827L584.748 71.429L581.511 72.1698L584.03 79.0133L577.339 79.5808L580.187 82.7861L578.694 85.5525L574.199 86.7626L569.97 86.7854L572.75 92.051L572.143 95.4871L566.653 92.294L564.634 94.3615L568.435 96.2864L571.658 100.966L571.784 107.077L565.809 108.53L563.893 105.619L560.849 101.256L560.883 106.408L556.35 110.369L564.794 110.688L569.174 111.098L559.268 117.594L549.149 123.418L538.854 125.952L535.159 125.984L531.037 128.798L524.525 136.447L515.932 141.473L513.474 141.767L508.427 143.518L503.008 145.18L498.864 149.557L497.532 154.481L494.561 159.059L487.295 164.595L487.386 169.956L484.347 175.582L480.851 182.163L475.534 182.572L471.503 177.076L464.17 177.041L461.662 173.324L461.192 166.652L457.647 158.055L457.337 153.505L458.99 147.177L456.501 140.61L459.67 135.317L458.351 132.769L464.93 124.247L470.977 121.51L473.46 118.417L476.398 112.599L471.639 115.243L469.42 116.351L466.053 117.41L463.034 114.982L464.964 109.897L467.944 105.886L470.951 105.776L476.643 107.786L473.171 102.977L471.482 100.369L467.867 101.442L466.098 99.5497L472.886 92.384L472.385 89.4966L472.618 84.1001L473.369 75.7244L471.34 72.6276L473.254 69.271L468.381 64.5479L462.757 63.9574L455.01 64.2846L447.722 64.8798L446.234 62.2957L445.105 57.1579L454.179 54.571L459.964 54.1354L449.954 51.987L446.559 48.5977L449.538 45.3539L462.628 41.3116L475.158 37.2471L478.534 34.151L474.336 31.0788L479.33 27.6492L492.634 21.5936L496.798 20.6587L499.141 16.7215L506.443 14.4026L514.438 13.0141L521.318 12.9355L521.712 15.6838L531.139 10.8147L534.117 14.1273L536.805 14.8234L539.723 17.6854L537.366 12.934L540.21 9.13235L550.925 3.78802L557.994 4.19227L562.639 0.86879L570.327 0L586.025 1.1343Z" fill="#D6E8FD"/>
</svg>
