<svg width="38" height="39" viewBox="0 0 38 39" fill="none" xmlns="http://www.w3.org/2000/svg">
<rect y="0.929443" width="37.9294" height="37.9294" rx="6" fill="#EFEAFF"/>
<path d="M18.0756 18.8118C16.6902 18.8118 15.5042 18.328 14.5176 17.3603C13.5311 16.3927 13.0378 15.2294 13.0378 13.8706C13.0378 12.5118 13.5311 11.3486 14.5176 10.3809C15.5042 9.41327 16.6902 8.92944 18.0756 8.92944C19.461 8.92944 20.6469 9.41327 21.6335 10.3809C22.6201 11.3486 23.1133 12.5118 23.1133 13.8706C23.1133 15.2294 22.6201 16.3927 21.6335 17.3603C20.6469 18.328 19.461 18.8118 18.0756 18.8118ZM8 28.6941V25.2353C8 24.5559 8.17842 23.9177 8.53526 23.3206C8.89211 22.7236 9.38539 22.2706 10.0151 21.9618C11.0856 21.4265 12.2926 20.9736 13.636 20.603C14.9794 20.2324 16.4593 20.0471 18.0756 20.0471H18.5164C18.6423 20.0471 18.7683 20.0677 18.8942 20.1089C18.7263 20.4794 18.5846 20.8655 18.4691 21.2669C18.3537 21.6684 18.2645 22.0853 18.2015 22.5177H18.0756C16.5852 22.5177 15.2471 22.703 14.0611 23.0736C12.8751 23.4441 11.9043 23.8147 11.1486 24.1853C10.9597 24.2883 10.8075 24.4324 10.6921 24.6177C10.5766 24.803 10.5189 25.0089 10.5189 25.2353V26.2236H18.4534C18.5793 26.6559 18.7473 27.0831 18.9572 27.5052C19.1671 27.9272 19.398 28.3236 19.6499 28.6941H8ZM25.6322 29.9294L25.2544 28.0765C25.0025 27.9736 24.7664 27.8655 24.546 27.7522C24.3256 27.639 24.0999 27.5 23.869 27.3353L22.0428 27.8912L20.7834 25.7912L22.2317 24.5559C22.1898 24.2677 22.1688 24 22.1688 23.753C22.1688 23.5059 22.1898 23.2383 22.2317 22.95L20.7834 21.7147L22.0428 19.6147L23.869 20.1706C24.0999 20.0059 24.3256 19.8669 24.546 19.7537C24.7664 19.6405 25.0025 19.5324 25.2544 19.4294L25.6322 17.5765H28.1511L28.529 19.4294C28.7809 19.5324 29.017 19.6456 29.2374 19.7691C29.4578 19.8927 29.6835 20.0471 29.9144 20.2324L31.7406 19.6147L33 21.7765L31.5516 23.0118C31.5936 23.2589 31.6146 23.5162 31.6146 23.7839C31.6146 24.0515 31.5936 24.3089 31.5516 24.5559L33 25.7912L31.7406 27.8912L29.9144 27.3353C29.6835 27.5 29.4578 27.639 29.2374 27.7522C29.017 27.8655 28.7809 27.9736 28.529 28.0765L28.1511 29.9294H25.6322ZM26.8917 26.2236C27.5844 26.2236 28.1774 25.9816 28.6707 25.4978C29.1639 25.014 29.4106 24.4324 29.4106 23.753C29.4106 23.0736 29.1639 22.4919 28.6707 22.0081C28.1774 21.5243 27.5844 21.2824 26.8917 21.2824C26.199 21.2824 25.606 21.5243 25.1127 22.0081C24.6194 22.4919 24.3728 23.0736 24.3728 23.753C24.3728 24.4324 24.6194 25.014 25.1127 25.4978C25.606 25.9816 26.199 26.2236 26.8917 26.2236ZM18.0756 16.3412C18.7683 16.3412 19.3613 16.0993 19.8545 15.6155C20.3478 15.1316 20.5945 14.55 20.5945 13.8706C20.5945 13.1912 20.3478 12.6096 19.8545 12.1258C19.3613 11.6419 18.7683 11.4 18.0756 11.4C17.3829 11.4 16.7899 11.6419 16.2966 12.1258C15.8033 12.6096 15.5567 13.1912 15.5567 13.8706C15.5567 14.55 15.8033 15.1316 16.2966 15.6155C16.7899 16.0993 17.3829 16.3412 18.0756 16.3412Z" fill="#8070BD"/>
</svg>
