<svg width="38" height="38" viewBox="0 0 38 38" fill="none" xmlns="http://www.w3.org/2000/svg">
<rect width="37.9294" height="37.9294" rx="6" fill="#F2E7FF"/>
<path d="M18.6439 26.3552H20.3521V25.1351C21.1655 24.9887 21.8651 24.6714 22.4508 24.1833C23.0364 23.6953 23.3293 22.9713 23.3293 22.0115C23.3293 21.3282 23.134 20.7018 22.7436 20.1324C22.3531 19.563 21.5722 19.0668 20.4009 18.6438C19.4248 18.3185 18.7496 18.0338 18.3754 17.7897C18.0013 17.5457 17.8142 17.2122 17.8142 16.7892C17.8142 16.3662 17.9647 16.0327 18.2656 15.7887C18.5666 15.5446 19.0018 15.4226 19.5712 15.4226C20.0918 15.4226 20.4985 15.5487 20.7913 15.8009C21.0842 16.053 21.2957 16.3662 21.4258 16.7404L22.9876 16.1059C22.8087 15.5365 22.4792 15.0403 21.9993 14.6173C21.5194 14.1943 20.9866 13.9584 20.4009 13.9096V12.6895H18.6927V13.9096C17.8792 14.0886 17.2448 14.4465 16.7892 14.9834C16.3337 15.5202 16.1059 16.1222 16.1059 16.7892C16.1059 17.5538 16.3296 18.172 16.777 18.6438C17.2244 19.1156 17.928 19.5224 18.8879 19.864C19.9128 20.2382 20.6246 20.5717 21.0232 20.8645C21.4218 21.1574 21.6211 21.5397 21.6211 22.0115C21.6211 22.5483 21.4299 22.9429 21.0476 23.195C20.6653 23.4472 20.2057 23.5733 19.6688 23.5733C19.1319 23.5733 18.6561 23.4065 18.2412 23.073C17.8264 22.7395 17.5213 22.2392 17.3261 21.5722L15.7155 22.2067C15.9433 22.9876 16.2971 23.618 16.777 24.0979C17.257 24.5779 17.8792 24.9073 18.6439 25.0863V26.3552ZM19.5224 29.2836C18.1721 29.2836 16.9031 29.0274 15.7155 28.5149C14.5279 28.0024 13.4948 27.3069 12.6163 26.4284C11.7378 25.5499 11.0423 24.5169 10.5298 23.3292C10.0174 22.1416 9.76114 20.8727 9.76114 19.5224C9.76114 18.172 10.0174 16.9031 10.5298 15.7155C11.0423 14.5279 11.7378 13.4948 12.6163 12.6163C13.4948 11.7378 14.5279 11.0423 15.7155 10.5298C16.9031 10.0173 18.1721 9.76111 19.5224 9.76111C20.8727 9.76111 22.1417 10.0173 23.3293 10.5298C24.5169 11.0423 25.55 11.7378 26.4285 12.6163C27.307 13.4948 28.0025 14.5279 28.5149 15.7155C29.0274 16.9031 29.2836 18.172 29.2836 19.5224C29.2836 20.8727 29.0274 22.1416 28.5149 23.3292C28.0025 24.5169 27.307 25.5499 26.4285 26.4284C25.55 27.3069 24.5169 28.0024 23.3293 28.5149C22.1417 29.0274 20.8727 29.2836 19.5224 29.2836ZM19.5224 27.3314C21.7024 27.3314 23.5489 26.5749 25.0619 25.0619C26.5749 23.5489 27.3314 21.7024 27.3314 19.5224C27.3314 17.3423 26.5749 15.4958 25.0619 13.9828C23.5489 12.4699 21.7024 11.7134 19.5224 11.7134C17.3424 11.7134 15.4959 12.4699 13.9829 13.9828C12.4699 15.4958 11.7134 17.3423 11.7134 19.5224C11.7134 21.7024 12.4699 23.5489 13.9829 25.0619C15.4959 26.5749 17.3424 27.3314 19.5224 27.3314Z" fill="#9E8DDC"/>
</svg>
