<svg width="19" height="19" viewBox="0 0 19 19" fill="none" xmlns="http://www.w3.org/2000/svg">
<path d="M12.668 8.70866V7.12533H17.418V8.70866H12.668ZM7.1263 9.50033C6.25547 9.50033 5.50998 9.19026 4.88984 8.57012C4.2697 7.94998 3.95964 7.20449 3.95964 6.33366C3.95964 5.46283 4.2697 4.71734 4.88984 4.0972C5.50998 3.47706 6.25547 3.16699 7.1263 3.16699C7.99714 3.16699 8.74262 3.47706 9.36276 4.0972C9.9829 4.71734 10.293 5.46283 10.293 6.33366C10.293 7.20449 9.9829 7.94998 9.36276 8.57012C8.74262 9.19026 7.99714 9.50033 7.1263 9.50033ZM0.792969 15.8337V13.617C0.792969 13.1684 0.90842 12.7561 1.13932 12.38C1.37023 12.004 1.677 11.717 2.05964 11.5191C2.87769 11.11 3.70894 10.8033 4.55339 10.5988C5.39783 10.3942 6.25547 10.292 7.1263 10.292C7.99714 10.292 8.85477 10.3942 9.69922 10.5988C10.5437 10.8033 11.3749 11.11 12.193 11.5191C12.5756 11.717 12.8824 12.004 13.1133 12.38C13.3442 12.7561 13.4596 13.1684 13.4596 13.617V15.8337H0.792969ZM2.3763 14.2503H11.8763V13.617C11.8763 13.4719 11.84 13.3399 11.7674 13.2212C11.6949 13.1024 11.5992 13.01 11.4805 12.9441C10.768 12.5878 10.0489 12.3206 9.32318 12.1425C8.59748 11.9644 7.86519 11.8753 7.1263 11.8753C6.38741 11.8753 5.65512 11.9644 4.92943 12.1425C4.20373 12.3206 3.48464 12.5878 2.77214 12.9441C2.65339 13.01 2.55773 13.1024 2.48516 13.2212C2.41259 13.3399 2.3763 13.4719 2.3763 13.617V14.2503ZM7.1263 7.91699C7.56172 7.91699 7.93446 7.76196 8.24453 7.45189C8.5546 7.14182 8.70964 6.76908 8.70964 6.33366C8.70964 5.89824 8.5546 5.5255 8.24453 5.21543C7.93446 4.90536 7.56172 4.75033 7.1263 4.75033C6.69089 4.75033 6.31814 4.90536 6.00807 5.21543C5.698 5.5255 5.54297 5.89824 5.54297 6.33366C5.54297 6.76908 5.698 7.14182 6.00807 7.45189C6.31814 7.76196 6.69089 7.91699 7.1263 7.91699Z" fill="#595959"/>
</svg>
