<svg width="18" height="18" viewBox="0 0 18 18" fill="none" xmlns="http://www.w3.org/2000/svg">
<path d="M6.875 11.25H9.125L8.69375 8.83125C8.94375 8.70625 9.14063 8.525 9.28438 8.2875C9.42813 8.05 9.5 7.7875 9.5 7.5C9.5 7.0875 9.35313 6.73438 9.05938 6.44063C8.76563 6.14688 8.4125 6 8 6C7.5875 6 7.23438 6.14688 6.94063 6.44063C6.64688 6.73438 6.5 7.0875 6.5 7.5C6.5 7.7875 6.57188 8.05 6.71563 8.2875C6.85938 8.525 7.05625 8.70625 7.30625 8.83125L6.875 11.25ZM8 16.5C6.2625 16.0625 4.82812 15.0656 3.69688 13.5094C2.56563 11.9531 2 10.225 2 8.325V3.75L8 1.5L14 3.75V8.325C14 10.225 13.4344 11.9531 12.3031 13.5094C11.1719 15.0656 9.7375 16.0625 8 16.5ZM8 14.925C9.3 14.5125 10.375 13.6875 11.225 12.45C12.075 11.2125 12.5 9.8375 12.5 8.325V4.78125L8 3.09375L3.5 4.78125V8.325C3.5 9.8375 3.925 11.2125 4.775 12.45C5.625 13.6875 6.7 14.5125 8 14.925Z" fill="#0B80A8"/>
</svg>
