<svg width="164" height="196" viewBox="0 0 164 196" fill="none" xmlns="http://www.w3.org/2000/svg">
<path d="M82.4622 116.078C84.0482 116.078 85.3333 114.792 85.3333 113.207V109.46C91.6659 108.17 95.0461 103.426 95.0461 98.9199C95.0461 93.1053 91.8293 89.431 85.2112 87.6873C79.1497 86.0906 75.9785 83.417 75.9785 81.6017C75.9785 79.2359 78.5793 76.5998 82.3118 76.5998C86.2716 76.5998 89.4494 79.7534 89.5324 79.8369C90.6334 80.97 92.4441 81.0014 93.5834 79.9047C94.7253 78.8048 94.7598 76.9872 93.66 75.8453C93.4961 75.6749 90.1943 72.3035 85.3333 71.2033V67.4551C85.3333 65.8695 84.0482 64.584 82.4622 64.584C80.8762 64.584 79.5911 65.8695 79.5911 67.4551V71.1489C74.304 72.2809 70.2358 76.6078 70.2358 81.6024C70.2358 86.661 75.2871 91.0117 83.7477 93.2408C88.8748 94.5918 89.3039 96.7876 89.3039 98.9207C89.3039 100.987 87.3136 104.062 81.8298 104.062C76.3639 104.062 73.8653 100.29 73.7776 100.154C72.9462 98.8035 71.1776 98.3828 69.8278 99.2139C68.4776 100.045 68.0561 101.814 68.8872 103.164C69.0392 103.411 72.3865 108.71 79.5915 109.658V113.207C79.5911 114.793 80.8762 116.078 82.4622 116.078Z" fill="#0DB04B"/>
<path d="M67.0468 191.891C71.5824 194.631 76.6677 196.001 81.7526 196.001C86.838 196.001 91.9229 194.631 96.4585 191.891C136.948 167.433 163.506 123.132 163.506 73.1638V37.4799C163.506 30.1835 158.866 23.6986 151.961 21.3427L96.5485 2.44157C87.0083 -0.812364 76.4985 -0.812747 66.9576 2.44157L11.5457 21.3427C4.63973 23.6982 0 30.1835 0 37.4799V73.1638C0 123.127 26.5548 167.431 67.0468 191.891ZM5.74224 37.4799C5.74224 32.6408 8.81931 28.3398 13.3993 26.7772L68.8112 7.87603C77.1558 5.02941 86.3491 5.02903 94.6949 7.87603L150.106 26.7772C154.687 28.3398 157.764 32.6404 157.764 37.4799V73.1638C157.764 120.118 133.736 162.665 93.4898 186.976C86.2511 191.349 77.2565 191.349 70.0163 186.976C29.7697 162.665 5.74224 120.118 5.74224 73.1638V37.4799Z" fill="#0C81A8"/>
<path d="M74.9648 178.778C77.058 180.043 79.4055 180.675 81.7525 180.675C84.1003 180.675 86.4481 180.043 88.5421 178.778C125.894 156.215 148.193 116.73 148.193 73.1575V42.2707C148.193 38.6577 145.896 35.4463 142.476 34.2802L126.975 28.9927C125.476 28.4817 123.843 29.2822 123.331 30.7832C122.819 32.2838 123.621 33.9158 125.122 34.4276L140.622 39.715C141.716 40.0879 142.451 41.115 142.451 42.2707V73.1575C142.451 114.702 121.188 152.348 85.5726 173.862C83.216 175.286 80.2882 175.285 77.9332 173.863C42.3175 152.348 21.0544 114.701 21.0544 73.1571V42.2703C21.0544 41.1146 21.789 40.0875 22.8827 39.7146L73.754 22.362C78.9116 20.6029 84.5926 20.6026 89.7511 22.362L112.441 30.1014C113.938 30.6117 115.573 29.8116 116.085 28.3109C116.597 26.8103 115.795 25.1784 114.294 24.6665L91.6047 16.9268C85.2514 14.76 78.2536 14.76 71.9004 16.9271L21.0299 34.2802C17.6102 35.4463 15.3125 38.6577 15.3125 42.2707V73.1575C15.3129 116.73 37.6127 156.214 74.9648 178.778Z" fill="#0C81A8"/>
<path d="M117.767 84.1169C118.034 85.6796 119.517 86.7289 121.081 86.462C122.644 86.1944 123.694 84.7103 123.427 83.1472C121.763 73.4325 116.692 64.5451 109.149 58.1214C101.518 51.6235 91.7874 48.0449 81.7511 48.0449C58.4345 48.0449 39.4648 67.0146 39.4648 90.3312C39.4648 113.648 58.4345 132.617 81.7511 132.617C91.7877 132.617 101.518 129.039 109.149 122.541C116.692 116.118 121.763 107.23 123.427 97.5151C123.694 95.952 122.644 94.4683 121.081 94.2003C119.517 93.9338 118.034 94.9824 117.767 96.5454C114.757 114.119 99.6102 126.875 81.7511 126.875C61.6004 126.875 45.2071 110.481 45.2071 90.3308C45.2071 70.1805 61.6004 53.7868 81.7511 53.7868C99.6106 53.7875 114.757 66.543 117.767 84.1169Z" fill="#0DB04B"/>
</svg>
